<svg xmlns="http://www.w3.org/2000/svg" viewBox="0 0 92.74 92.61"><defs><style>.cls-1{fill:#56b9b5;stroke:#56b9b5;stroke-miterlimit:10;stroke-width:1.5px;}</style></defs><g id="Layer_2" data-name="Layer 2"><g id="Layer_1-2" data-name="Layer 1"><path class="cls-1" d="M8,53.5A4.58,4.58,0,0,0,7.26,56l-2.8.62a4.73,4.73,0,0,0-3.6,5.63l5.38,24a4.73,4.73,0,0,0,4.62,3.69,4.57,4.57,0,0,0,1-.11l2.81-.62a4.67,4.67,0,0,0,4.2,2.65,4.4,4.4,0,0,0,1-.11l4.9-1.09a4.63,4.63,0,0,0,3.54-5.54l-7-31.23a4.67,4.67,0,0,0-5.56-3.53L14,50.77a98.69,98.69,0,0,1-1.22-14.84C12.74,17.79,27.85,3,46.43,3s33.69,14.76,33.69,32.9a97.36,97.36,0,0,1-1.23,14.86l-2-.43a4.68,4.68,0,0,0-5.56,3.53l-7,31.23a4.64,4.64,0,0,0,3.54,5.55l4.9,1.08a4.4,4.4,0,0,0,1,.11A4.67,4.67,0,0,0,78,89.21l2.81.62a4.57,4.57,0,0,0,1,.11,4.73,4.73,0,0,0,4.62-3.69l5.38-24a4.73,4.73,0,0,0-3.6-5.63L85.48,56a4.64,4.64,0,0,0-3.64-4.51l-.72-.16A102.61,102.61,0,0,0,82.4,35.93c0-19.4-16.14-35.18-36-35.18s-36,15.78-36,35.18a102.23,102.23,0,0,0,1.28,15.33l-.83.19A4.61,4.61,0,0,0,8,53.5Zm81.35,6.38a2.43,2.43,0,0,1,.32,1.84l-5.37,24a2.47,2.47,0,0,1-2.93,1.85L78.66,87l6.44-28.8,2.69.6a2.43,2.43,0,0,1,1.54,1.07Zm-6.49-5.16a2.36,2.36,0,0,1,.31,1.78l-7,31.23a2.38,2.38,0,0,1-2.84,1.8l-4.9-1.09a2.43,2.43,0,0,1-1.5-1,2.38,2.38,0,0,1-.31-1.78l7-31.24a2.38,2.38,0,0,1,2.85-1.79l4.9,1.08a2.38,2.38,0,0,1,1.5,1ZM11.39,87.6a2.44,2.44,0,0,1-2.92-1.85l-5.38-24A2.42,2.42,0,0,1,5,58.81l2.69-.6L14.08,87Zm4.91-35a2.39,2.39,0,0,1,2.85,1.79l7,31.24a2.37,2.37,0,0,1-1.81,2.82l-4.9,1.09a2.4,2.4,0,0,1-2.85-1.8l-7-31.23a2.37,2.37,0,0,1,1.81-2.83Z"/></g></g></svg>