<svg xmlns="http://www.w3.org/2000/svg" viewBox="0 0 69.08 74.41"><defs><style>.cls-1{fill:#56b9b5;}</style></defs><g id="Layer_2" data-name="Layer 2"><g id="Layer_1-2" data-name="Layer 1"><path class="cls-1" d="M12.12,44.78A1.65,1.65,0,0,0,9,44.67,1.63,1.63,0,0,0,9,46a25.26,25.26,0,0,0,8.83,11.54,1.65,1.65,0,1,0,1.94-2.67,22.09,22.09,0,0,1-7.68-10Z"/><path class="cls-1" d="M60.81,49a8.28,8.28,0,0,0,8.27-8.27v-1.8a8.26,8.26,0,0,0-8.27-8.27H59.68V28.11a5,5,0,0,0-5-5H5a5,5,0,0,0-5,5V39.69A28.13,28.13,0,0,0,28.11,67.8h3.45A28.15,28.15,0,0,0,58.05,49Zm0-15a5,5,0,0,1,5,5v1.8a5,5,0,0,1-5,5H59.68V34ZM31.56,64.49H28.11a24.82,24.82,0,0,1-24.8-24.8V28.11A1.65,1.65,0,0,1,5,26.46H54.71a1.66,1.66,0,0,1,1.66,1.65V39.69a24.84,24.84,0,0,1-24.81,24.8Z"/><path class="cls-1" d="M5.6,71.11a1.65,1.65,0,0,0,0,3.3H55.21a1.65,1.65,0,0,0,0-3.3Z"/><path class="cls-1" d="M16.69.48a1.67,1.67,0,0,0-2.34,0,6.35,6.35,0,0,0,0,9,3,3,0,0,1,0,4.27l-.82.83A1.68,1.68,0,0,0,13,15.72a1.66,1.66,0,0,0,1.67,1.66,1.61,1.61,0,0,0,1.17-.5l.83-.83a6.34,6.34,0,0,0,0-9,3,3,0,0,1,0-4.28A1.65,1.65,0,0,0,16.69.48Z"/><path class="cls-1" d="M31.57,2.82A1.65,1.65,0,0,0,29.24.48a6.33,6.33,0,0,0,0,9,3,3,0,0,1,0,4.27l-.83.83a1.64,1.64,0,0,0,0,2.36,1.67,1.67,0,0,0,2.36,0l.82-.83a6.31,6.31,0,0,0,0-9,3,3,0,0,1,0-4.28Z"/><path class="cls-1" d="M46.46.48a1.67,1.67,0,0,0-2.34,0,6.35,6.35,0,0,0,0,9,3,3,0,0,1,0,4.27l-.83.83a1.67,1.67,0,0,0,0,2.36,1.65,1.65,0,0,0,1.19.48,1.63,1.63,0,0,0,1.17-.5l.83-.83a6.34,6.34,0,0,0,0-9,3,3,0,0,1,0-4.28A1.67,1.67,0,0,0,46.46.48Z"/></g></g></svg>