<svg xmlns="http://www.w3.org/2000/svg" viewBox="0 0 80.3 80.3"><defs><style>.cls-1{fill:#56b9b5;stroke:#56b9b5;stroke-miterlimit:10;stroke-width:2.5px;}</style></defs><g id="Layer_2" data-name="Layer 2"><g id="Layer_1-2" data-name="Layer 1"><path class="cls-1" d="M40.15,1.25a38.9,38.9,0,1,0,38.9,38.9,38.92,38.92,0,0,0-38.9-38.9Zm0,2.05A36.85,36.85,0,1,1,3.3,40.15,36.83,36.83,0,0,1,40.15,3.3Zm0,9.21a1,1,0,0,0-1,1V40.15a1,1,0,0,0,.55.86c6.93,4.11,14.18,8.24,21.24,12.32a1,1,0,0,0,1.41-.39,1,1,0,0,0-.39-1.4l-20.76-12v-26a1,1,0,0,0-1-1Z"/></g></g></svg>