<svg xmlns="http://www.w3.org/2000/svg" viewBox="0 0 70.94 51.27"><defs><style>.cls-1{fill:#56b9b5;stroke:#56b9b5;stroke-miterlimit:10;stroke-width:1.5px;}</style></defs><g id="Layer_2" data-name="Layer 2"><g id="Layer_1-2" data-name="Layer 1"><path class="cls-1" d="M17,.75H1.47a.72.72,0,0,0-.72.72V17.05a.72.72,0,0,0,1.43,0V2.18H17A.72.72,0,1,0,17,.75Z"/><path class="cls-1" d="M69.48.75H53.9a.72.72,0,1,0,0,1.43H68.76V17.05a.72.72,0,0,0,1.43,0V1.46a.71.71,0,0,0-.71-.71Z"/><path class="cls-1" d="M69.48,33.51a.71.71,0,0,0-.72.71V49.09H53.9a.72.72,0,0,0,0,1.44H69.48a.71.71,0,0,0,.71-.72V34.22a.71.71,0,0,0-.71-.71Z"/><path class="cls-1" d="M17,49.08H2.18V34.22a.72.72,0,0,0-1.43,0V49.8a.71.71,0,0,0,.72.71H17.05a.72.72,0,1,0,0-1.43Z"/><path class="cls-1" d="M35.47,14.18A11.45,11.45,0,1,0,46.92,25.63,11.47,11.47,0,0,0,35.47,14.18Zm0,21.47a10,10,0,1,1,10-10A10,10,0,0,1,35.47,35.65Z"/><path class="cls-1" d="M13.1,8.07a.72.72,0,1,0,0-1.43H7.91a.72.72,0,1,0,0,1.43Z"/></g></g></svg>