<svg xmlns="http://www.w3.org/2000/svg" viewBox="0 0 72.56 71.62"><defs><style>.cls-1{fill:#56b9b5;}</style></defs><g id="Layer_2" data-name="Layer 2"><g id="Layer_1-2" data-name="Layer 1"><path class="cls-1" d="M71.4,63.77H68.7V59.41a1.13,1.13,0,0,0-.34-.82,1.18,1.18,0,0,0-.83-.35H65.07V27.12h1.32a1.17,1.17,0,0,0,.83-.34,1.22,1.22,0,0,0,.34-.83v-4.2H71.4A1.17,1.17,0,0,0,72,19.56L36.84.15h0a1.12,1.12,0,0,0-1.12,0L.6,19.56h0a1.17,1.17,0,0,0,.56,2.19H5V26a1.16,1.16,0,0,0,1.17,1.17H7.49V58.24H5A1.16,1.16,0,0,0,3.86,59.4v4.36H1.16a1.21,1.21,0,0,0-.82.34,1.17,1.17,0,0,0-.34.83v5.53a1.16,1.16,0,0,0,1.16,1.16H71.4a1.16,1.16,0,0,0,1.16-1.16V64.93a1.17,1.17,0,0,0-.34-.82,1.15,1.15,0,0,0-.82-.34Zm-8.66-5.53H58.51V27.12h4.23Zm-22,0V27.12h1.32a1.15,1.15,0,0,0,.82-.34,1.17,1.17,0,0,0,.34-.83v-4.2H53.7V26a1.16,1.16,0,0,0,1.16,1.16h1.32V58.24Zm-24.34,0V27.12h1.32a1.13,1.13,0,0,0,.82-.34,1.18,1.18,0,0,0,.35-.83v-4.2H29.36V26a1.15,1.15,0,0,0,.34.82,1.17,1.17,0,0,0,.82.34h1.32V58.24ZM39.56,24.78H31.68v-3h9.2v3Zm-5.39,2.33h4.24V58.24H34.17Zm31.06-2.33H56v-3h9.2ZM36.28,2.5l30.6,16.91H5.69ZM7.34,21.75h9.2v3H7.34Zm2.48,5.37h4.23V58.24H9.82ZM6.2,60.58H66.37v3.19H6.2Zm64,8.71H2.33V66.1H70.24Z"/></g></g></svg>