<svg xmlns="http://www.w3.org/2000/svg" viewBox="0 0 50.66 71.52"><defs><style>.cls-1{fill:#56b9b5;}</style></defs><g id="Layer_2" data-name="Layer 2"><g id="Layer_1-2" data-name="Layer 1"><path class="cls-1" d="M49.17,61.27H1.49A1.49,1.49,0,0,1,0,59.78V16.39A1.49,1.49,0,0,1,1.49,14.9H49.17a1.49,1.49,0,0,1,1.49,1.49V59.78A1.48,1.48,0,0,1,49.17,61.27ZM3,58.29h44.7V17.88H3Z"/><path class="cls-1" d="M38.74,28.31a1.49,1.49,0,0,1-1.49-1.49V8.94a6,6,0,0,0-6-6H19.37a6,6,0,0,0-6,6V26.82a1.49,1.49,0,1,1-3,0V8.94A9,9,0,0,1,19.37,0H31.29a9,9,0,0,1,8.94,8.94V26.82a1.49,1.49,0,0,1-1.49,1.49Z"/><path class="cls-1" d="M44.7,71.52H6a6,6,0,0,1-6-6V59.78a1.49,1.49,0,0,1,1.49-1.49H49.17a1.49,1.49,0,0,1,1.49,1.49v5.78a6,6,0,0,1-6,6ZM3,61.27v4.29a3,3,0,0,0,3,3H44.7a3,3,0,0,0,3-3V61.27Z"/></g></g></svg>