<svg xmlns="http://www.w3.org/2000/svg" viewBox="0 0 94.85 94.74"><defs><style>.cls-1{fill:#56b9b5;stroke:#56b9b5;stroke-miterlimit:10;stroke-width:1.5px;}</style></defs><g id="Layer_2" data-name="Layer 2"><g id="Layer_1-2" data-name="Layer 1"><path class="cls-1" d="M10.38,66.23a1.06,1.06,0,0,0,1.45.11,11.93,11.93,0,0,1,15.56,1.12A12.06,12.06,0,0,1,28.51,83a1,1,0,0,0,.11,1.45l9.18,9.18a1.18,1.18,0,0,0,.78.34,1.2,1.2,0,0,0,.79-.34l54.39-54.4a1.07,1.07,0,0,0,0-1.56L57.05,1.09a1.08,1.08,0,0,0-1.57,0L1.09,55.48a1.08,1.08,0,0,0,0,1.57Zm31.9-48.8L49.89,25l1.56-1.57-7.61-7.61L56.27,3.44l35,35L79,51l-7.61-7.62L69.81,45l7.61,7.61L38.58,91.3l-7.72-7.72A14.18,14.18,0,0,0,11.27,64L3.55,56.27Z"/><path class="cls-1" d="M55.47,30.65l1.58-1.58,8.71,8.7-1.58,1.58Z"/></g></g></svg>