<svg xmlns="http://www.w3.org/2000/svg" viewBox="0 0 59.05 60.4"><defs><style>.cls-1{fill:#56b9b5;}</style></defs><g id="Layer_2" data-name="Layer 2"><g id="Layer_1-2" data-name="Layer 1"><path class="cls-1" d="M58.45.22A1.34,1.34,0,0,0,57.18.11L38.92,7.93,20.66.11l-.05,0-.16,0-.16,0H20l-.16,0-.16,0,0,0L.81,8.16A1.35,1.35,0,0,0,0,9.39V59.05A1.36,1.36,0,0,0,1.34,60.4a1.4,1.4,0,0,0,.53-.11l18.26-7.83,18.26,7.83.1,0,.1,0a1.2,1.2,0,0,0,.33,0,1.27,1.27,0,0,0,.34,0l.1,0,.1,0,18.79-8a1.37,1.37,0,0,0,.8-1.24V1.34a1.33,1.33,0,0,0-.6-1.12ZM2.69,10.28l16.1-6.91V50.11L2.69,57ZM21.47,3.37l16.11,6.91V57L21.47,50.11Zm34.9,46.74L40.26,57V10.28L56.37,3.37Z"/></g></g></svg>