<?xml version="1.0" encoding="UTF-8"?>
<svg id="Layer_2" data-name="Layer 2" xmlns="http://www.w3.org/2000/svg" xmlns:xlink="http://www.w3.org/1999/xlink" viewBox="0 0 267.29 226.32">
  <defs>
    <style>
      .cls-1 {
        fill: #d94b77;
      }

      .cls-2 {
        fill: url(#linear-gradient-15);
      }

      .cls-3 {
        fill: url(#linear-gradient-13);
      }

      .cls-4 {
        fill: url(#linear-gradient-28);
      }

      .cls-5 {
        fill: url(#linear-gradient-42);
      }

      .cls-6 {
        fill: url(#linear-gradient-46);
      }

      .cls-7 {
        fill: url(#linear-gradient-2);
      }

      .cls-8 {
        fill: url(#linear-gradient-43);
      }

      .cls-9 {
        fill: url(#linear-gradient-25);
      }

      .cls-10 {
        fill: url(#linear-gradient-10);
      }

      .cls-11 {
        fill: url(#linear-gradient-12);
      }

      .cls-12 {
        fill: url(#linear-gradient-40);
      }

      .cls-13 {
        fill: url(#linear-gradient-27);
      }

      .cls-14 {
        fill: #57bab5;
      }

      .cls-15 {
        fill: url(#linear-gradient-37);
      }

      .cls-16 {
        fill: url(#linear-gradient-39);
      }

      .cls-17 {
        fill: url(#linear-gradient-26);
      }

      .cls-18 {
        fill: none;
      }

      .cls-19 {
        fill: url(#linear-gradient-4);
      }

      .cls-20 {
        fill: url(#linear-gradient-35);
      }

      .cls-21 {
        fill: url(#linear-gradient-30);
      }

      .cls-22 {
        fill: url(#linear-gradient-44);
      }

      .cls-23 {
        fill: url(#linear-gradient-3);
      }

      .cls-24 {
        fill: url(#linear-gradient-34);
      }

      .cls-25 {
        fill: url(#linear-gradient-5);
      }

      .cls-26 {
        fill: url(#linear-gradient-38);
      }

      .cls-27 {
        fill: url(#linear-gradient-22);
      }

      .cls-28 {
        fill: url(#linear-gradient-24);
      }

      .cls-29 {
        fill: url(#linear-gradient-33);
      }

      .cls-30 {
        fill: url(#linear-gradient-8);
      }

      .cls-31 {
        fill: url(#linear-gradient-14);
      }

      .cls-32 {
        fill: url(#linear-gradient-29);
      }

      .cls-33 {
        fill: url(#linear-gradient-20);
      }

      .cls-34 {
        fill: url(#linear-gradient-17);
      }

      .cls-35 {
        fill: url(#linear-gradient-7);
      }

      .cls-36 {
        fill: url(#linear-gradient-9);
      }

      .cls-37 {
        fill: url(#linear-gradient-11);
      }

      .cls-38 {
        fill: url(#linear-gradient-19);
      }

      .cls-39 {
        fill: url(#linear-gradient-6);
      }

      .cls-40 {
        fill: url(#linear-gradient-36);
      }

      .cls-41 {
        fill: url(#linear-gradient-21);
      }

      .cls-42 {
        fill: url(#linear-gradient-45);
      }

      .cls-43 {
        fill: url(#linear-gradient-32);
      }

      .cls-44 {
        fill: url(#linear-gradient-41);
      }

      .cls-45 {
        fill: url(#linear-gradient-16);
      }

      .cls-46 {
        fill: url(#linear-gradient);
      }

      .cls-47 {
        fill: url(#linear-gradient-23);
      }

      .cls-48 {
        fill: url(#linear-gradient-31);
      }

      .cls-49 {
        fill: url(#linear-gradient-18);
      }
    </style>
    <linearGradient id="linear-gradient" x1="177.6" y1="-192.06" x2="181.4" y2="-192.06" gradientTransform="translate(-508.91 771.35) scale(2.87)" gradientUnits="userSpaceOnUse">
      <stop offset="0" stop-color="#ebd1ac"/>
      <stop offset=".11" stop-color="#e1b165"/>
      <stop offset=".25" stop-color="#dfb06a"/>
      <stop offset=".45" stop-color="#e1b173"/>
      <stop offset=".55" stop-color="#e9b880"/>
      <stop offset=".72" stop-color="#cf9c2b"/>
      <stop offset=".9" stop-color="#d2a955"/>
      <stop offset="1" stop-color="#be9737"/>
    </linearGradient>
    <linearGradient id="linear-gradient-2" x1="184.14" y1="-192.05" x2="186.9" y2="-192.05" xlink:href="#linear-gradient"/>
    <linearGradient id="linear-gradient-3" x1="189.67" x2="193.47" xlink:href="#linear-gradient"/>
    <linearGradient id="linear-gradient-4" x1="196.21" y1="-192.1" x2="198.73" y2="-192.1" xlink:href="#linear-gradient"/>
    <linearGradient id="linear-gradient-5" x1="201.28" y1="-192.11" x2="204.54" y2="-192.11" xlink:href="#linear-gradient"/>
    <linearGradient id="linear-gradient-6" x1="207.29" y1="-192.09" x2="207.95" y2="-192.09" xlink:href="#linear-gradient"/>
    <linearGradient id="linear-gradient-7" x1="214.79" y1="-192.08" x2="217.61" y2="-192.08" xlink:href="#linear-gradient"/>
    <linearGradient id="linear-gradient-8" x1="220.5" y1="-192.09" x2="221.16" y2="-192.09" xlink:href="#linear-gradient"/>
    <linearGradient id="linear-gradient-9" x1="223.94" y1="-192.09" x2="227.02" y2="-192.09" xlink:href="#linear-gradient"/>
    <linearGradient id="linear-gradient-10" x1="229.42" y1="-192.09" x2="232.58" y2="-192.09" xlink:href="#linear-gradient"/>
    <linearGradient id="linear-gradient-11" x1="238.79" x2="242.59" xlink:href="#linear-gradient"/>
    <linearGradient id="linear-gradient-12" x1="245.33" y1="-192.05" x2="248.09" y2="-192.05" xlink:href="#linear-gradient"/>
    <linearGradient id="linear-gradient-13" x1="251.02" y1="-192.08" x2="253.27" y2="-192.08" xlink:href="#linear-gradient"/>
    <linearGradient id="linear-gradient-14" x1="256.19" y1="-192.09" x2="258.53" y2="-192.09" xlink:href="#linear-gradient"/>
    <linearGradient id="linear-gradient-15" x1="261.48" y1="-192.05" x2="264.24" y2="-192.05" xlink:href="#linear-gradient"/>
    <linearGradient id="linear-gradient-16" x1="267.01" x2="270.81" xlink:href="#linear-gradient"/>
    <linearGradient id="linear-gradient-17" x1="49.45" y1="203.38" x2="42.8" y2="193.89" gradientTransform="translate(-13.9 -76.39) scale(1.21)" xlink:href="#linear-gradient"/>
    <linearGradient id="linear-gradient-18" x1="79.94" y1="169.53" x2="24.29" y2="90.05" gradientTransform="translate(-13.9 -76.39) scale(1.21)" xlink:href="#linear-gradient"/>
    <linearGradient id="linear-gradient-19" x1="98.09" y1="186.92" x2="30.09" y2="89.81" gradientTransform="translate(-13.9 -76.39) scale(1.21)" xlink:href="#linear-gradient"/>
    <linearGradient id="linear-gradient-20" x1="236.35" y1="193.47" x2="157.15" y2="80.35" gradientTransform="translate(-37.24 -76.39) scale(1.21)" xlink:href="#linear-gradient"/>
    <linearGradient id="linear-gradient-21" x1="218.19" y1="203.25" x2="212.15" y2="194.62" gradientTransform="translate(-37.24 -76.39) scale(1.21)" xlink:href="#linear-gradient"/>
    <linearGradient id="linear-gradient-22" x1="239.62" y1="171.98" x2="179.19" y2="85.67" gradientTransform="translate(-37.24 -76.39) scale(1.21)" xlink:href="#linear-gradient"/>
    <linearGradient id="linear-gradient-23" x1="92.71" y1="127.02" x2="82.3" y2="112.14" gradientTransform="translate(-26.35 -76.39) scale(1.21)" xlink:href="#linear-gradient"/>
    <linearGradient id="linear-gradient-24" x1="166.3" y1="181.96" x2="151.83" y2="161.29" gradientTransform="translate(-26.35 -76.39) scale(1.21)" xlink:href="#linear-gradient"/>
    <linearGradient id="linear-gradient-25" x1="62.1" y1="231.82" x2="50.71" y2="215.55" gradientTransform="translate(-68.99 -98.02) scale(1.32)" xlink:href="#linear-gradient"/>
    <linearGradient id="linear-gradient-26" x1="77.39" y1="233.37" x2="64.93" y2="215.58" gradientTransform="translate(-68.63 -98.02) scale(1.32)" xlink:href="#linear-gradient"/>
    <linearGradient id="linear-gradient-27" x1="84.17" y1="231.97" x2="80.83" y2="227.2" gradientTransform="translate(-70.28 -98.02) scale(1.32)" xlink:href="#linear-gradient"/>
    <linearGradient id="linear-gradient-28" x1="98.09" y1="231.22" x2="87.21" y2="215.68" gradientTransform="translate(-64.38 -98.02) scale(1.32)" xlink:href="#linear-gradient"/>
    <linearGradient id="linear-gradient-29" x1="114.63" y1="232.42" x2="102.26" y2="214.76" gradientTransform="translate(-63.85 -98.02) scale(1.32)" xlink:href="#linear-gradient"/>
    <linearGradient id="linear-gradient-30" x1="127.82" y1="234.37" x2="116.79" y2="218.62" gradientTransform="translate(-62.61 -98.02) scale(1.32)" xlink:href="#linear-gradient"/>
    <linearGradient id="linear-gradient-31" x1="142.98" y1="230.5" x2="131.64" y2="214.31" gradientTransform="translate(-61.37 -98.02) scale(1.32)" xlink:href="#linear-gradient"/>
    <linearGradient id="linear-gradient-32" x1="159.84" y1="231.81" x2="148.44" y2="215.54" gradientTransform="translate(-56.69 -98.02) scale(1.32)" xlink:href="#linear-gradient"/>
    <linearGradient id="linear-gradient-33" x1="173.03" y1="234.37" x2="162" y2="218.62" gradientTransform="translate(-55.63 -98.02) scale(1.32)" xlink:href="#linear-gradient"/>
    <linearGradient id="linear-gradient-34" x1="186.99" y1="230.39" x2="178.5" y2="218.26" gradientTransform="translate(-54.38 -98.02) scale(1.32)" xlink:href="#linear-gradient"/>
    <linearGradient id="linear-gradient-35" x1="196.34" y1="230.26" x2="186.99" y2="216.91" gradientTransform="translate(-54.38 -98.02) scale(1.32)" xlink:href="#linear-gradient"/>
    <linearGradient id="linear-gradient-36" x1="208.67" y1="233.65" x2="196.94" y2="216.9" gradientTransform="translate(-51.03 -98.02) scale(1.32)" xlink:href="#linear-gradient"/>
    <linearGradient id="linear-gradient-37" x1="222.45" y1="234.37" x2="211.42" y2="218.62" gradientTransform="translate(-48.9 -98.02) scale(1.32)" xlink:href="#linear-gradient"/>
    <linearGradient id="linear-gradient-38" x1="237" y1="231.8" x2="225.61" y2="215.53" gradientTransform="translate(-48.37 -98.02) scale(1.32)" xlink:href="#linear-gradient"/>
    <linearGradient id="linear-gradient-39" x1="116.01" y1="97.27" x2="106.72" y2="83.99" gradientTransform="translate(-26.35 -76.39) scale(1.21)" xlink:href="#linear-gradient"/>
    <linearGradient id="linear-gradient-40" x1="116.39" y1="87.09" x2="111.86" y2="80.63" gradientTransform="translate(-26.35 -76.39) scale(1.21)" xlink:href="#linear-gradient"/>
    <linearGradient id="linear-gradient-41" x1="120.56" y1="96.62" x2="117.05" y2="91.6" gradientTransform="translate(-26.35 -76.39) scale(1.21)" xlink:href="#linear-gradient"/>
    <linearGradient id="linear-gradient-42" x1="135.25" y1="129.31" x2="102.18" y2="82.08" gradientTransform="translate(-26.35 -76.39) scale(1.21)" xlink:href="#linear-gradient"/>
    <linearGradient id="linear-gradient-43" x1="100.77" y1="114.64" x2="95.64" y2="107.31" gradientTransform="translate(-26.35 -76.39) scale(1.21)" xlink:href="#linear-gradient"/>
    <linearGradient id="linear-gradient-44" x1="237.88" y1="-217.71" x2="215.05" y2="-250.32" gradientTransform="translate(-509.77 771.33) scale(2.87)" xlink:href="#linear-gradient"/>
    <linearGradient id="linear-gradient-45" x1="167.27" y1="127.48" x2="156" y2="111.38" gradientTransform="translate(-26.35 -76.39) scale(1.21)" xlink:href="#linear-gradient"/>
    <linearGradient id="linear-gradient-46" x1="177.03" y1="162.02" x2="153.93" y2="129.04" gradientTransform="translate(-26.35 -76.39) scale(1.21)" xlink:href="#linear-gradient"/>
  </defs>
  <g id="Layer_1-2" data-name="Layer 1">
    <g>
      <path class="cls-1" d="M173.78,128.3c-1.63-.35-1.89.66-1.89.66,1.26.45.92,1.81.92,1.81-.17,1-1.53,1.22-1.53,1.22-2.3.41-3.56-1.8-3.56-1.8.77-.27,1.34-1.35.57-2.13-.76-.79-1.95.03-1.95.03.38-2.9-4.52-5.89-4.52-5.89l-1.31-.53.03,1.38s-.05,6.19,2.75,7.03c0,0-1.24.75-.84,1.76.4,1.02,1.62.95,2.18.36,0,0,1.49,2.06.17,3.99,0,0-.77,1.15-1.75.89,0,0-1.37-.25-1.27-1.59,0,0-1.02-.18-1.38,1.45,0,0-.99,4.14,2.35,5.46,0,0,5.04,1.45,4.94-6.43.21,1.94.8,4.73,2.4,6.04,0,0,1.74,1.46,4.24,1.82v-.03c.68-2.41.07-4.59.07-4.59-.53-1.99-2.83-3.68-4.51-4.68,7.14,3.35,7.9-1.84,7.9-1.84.16-3.59-4.01-4.4-4.01-4.4Z"/>
      <path class="cls-1" d="M76.31,66.53s2.12-1.87,4.27.51c0,0-1.76-6.16,2.13-9.23,0,0-1.46,8.12,7.4,12.9.47.26.4.25.91.46.32.14,1.35.54,1.9.6l-.37.2s-1.53,0-1.78,0c-2.03-.03-11.42.2-15.38,6.25,0,0-.36-5.77,3.65-7.54,0,0-4.84-.46-2.75-4.16Z"/>
      <path class="cls-46" d="M10.88,226.14h-1.83l-1.1-5.74-2.14,5.88h-.68l-2.15-5.88-1.14,5.74H0l2.14-10.66h1.01l2.31,7.18,2.25-7.18h.99l2.17,10.66Z"/>
      <path class="cls-7" d="M18.75,215.48h1.89v7.23c0,.57.17,1.04.52,1.4.35.36.83.54,1.44.54.68,0,1.21-.18,1.6-.53.38-.35.57-.83.57-1.45v-7.2h1.89v7.34c0,1.1-.37,1.96-1.1,2.58-.74.62-1.72.93-2.94.93s-2.19-.3-2.86-.91c-.67-.61-1.01-1.48-1.01-2.61v-7.33Z"/>
      <path class="cls-23" d="M45.47,226.14h-1.83l-1.1-5.74-2.14,5.88h-.68l-2.15-5.88-1.14,5.74h-1.83l2.14-10.66h1.01l2.31,7.18,2.25-7.18h.99l2.17,10.66Z"/>
      <path class="cls-19" d="M56.32,216.97c1.12,0,1.68.41,1.68,1.23,0,.93-.62,1.39-1.85,1.39-.32,0-.62-.01-.92-.03v-2.56c.43-.02.79-.04,1.08-.04ZM59.44,225.28c.73-.57,1.1-1.34,1.1-2.31,0-1.44-.66-2.39-1.99-2.85.89-.49,1.33-1.16,1.33-2s-.31-1.55-.93-2.03c-.62-.47-1.49-.71-2.59-.71-.58,0-1.58.03-3.02.1v10.65h3.26c1.16,0,2.11-.28,2.84-.86ZM56.19,221.02c.88,0,1.5.14,1.85.41.35.27.53.72.53,1.32,0,.66-.19,1.14-.57,1.42-.38.29-.99.43-1.83.43-.24,0-.55-.02-.93-.05v-3.51c.45-.01.77-.02.95-.02Z"/>
      <path class="cls-25" d="M73.79,222.54h-2.56l1.29-3.94,1.27,3.94ZM77.21,226.14l-4.28-10.8h-.82l-4.25,10.8h2.09l.74-2.16h3.65l.78,2.16h2.09Z"/>
      <path class="cls-39" d="M85.09,226.14v-10.66h1.89v10.66h-1.89Z"/>
      <path class="cls-35" d="M114.39,216.05l-.78,1.56c-.42-.42-1.1-.63-2.03-.63s-1.61.37-2.18,1.12c-.57.74-.85,1.69-.85,2.83s.26,2.05.79,2.71c.52.67,1.22,1,2.1,1,1,0,1.78-.36,2.35-1.08l.88,1.53c-.77.82-1.9,1.23-3.38,1.23s-2.64-.49-3.46-1.47c-.82-.98-1.23-2.32-1.23-4.01,0-1.57.46-2.89,1.37-3.95.91-1.06,2.08-1.59,3.51-1.59,1.22,0,2.2.25,2.93.75Z"/>
      <path class="cls-30" d="M122.94,226.14v-10.66h1.89v10.66h-1.89Z"/>
      <path class="cls-36" d="M138.09,217.15v8.98h-1.89v-8.98h-3.38v-1.68h8.81v1.68h-3.54Z"/>
      <path class="cls-10" d="M154,221.76v4.37h-1.89v-4.37l-3.6-6.29h2l2.53,4.55,2.54-4.55h2l-3.58,6.29Z"/>
      <path class="cls-37" d="M186.25,226.14h-1.83l-1.1-5.74-2.14,5.88h-.68l-2.15-5.88-1.14,5.74h-1.83l2.14-10.66h1.01l2.31,7.18,2.25-7.18h.99l2.17,10.66Z"/>
      <path class="cls-11" d="M194.12,215.48h1.89v7.23c0,.57.17,1.04.52,1.4.35.36.83.54,1.44.54.68,0,1.21-.18,1.59-.53.38-.35.57-.83.57-1.45v-7.2h1.89v7.34c0,1.1-.37,1.96-1.1,2.58-.73.62-1.71.93-2.94.93s-2.19-.3-2.86-.91c-.67-.61-1.01-1.48-1.01-2.61v-7.33Z"/>
      <path class="cls-3" d="M210.42,225.55l.7-1.7c.75.53,1.48.79,2.21.79,1.11,0,1.67-.39,1.67-1.16,0-.36-.13-.71-.39-1.04-.26-.33-.8-.7-1.62-1.11-.82-.41-1.37-.75-1.66-1.01-.28-.26-.5-.58-.66-.94-.15-.36-.23-.76-.23-1.21,0-.83.3-1.51.91-2.05.6-.54,1.38-.82,2.33-.82,1.23,0,2.14.23,2.72.69l-.58,1.63c-.67-.48-1.37-.71-2.11-.71-.44,0-.78.11-1.02.34-.24.23-.36.53-.36.9,0,.61.68,1.25,2.03,1.9.71.35,1.23.67,1.55.96.31.29.55.64.72,1.02.17.39.25.83.25,1.3,0,.86-.34,1.57-1.02,2.13-.68.56-1.59.84-2.74.84-1,0-1.89-.26-2.69-.77Z"/>
      <path class="cls-31" d="M227.12,217.15v2.5h3.43v1.61h-3.43v3.2h4.83v1.68h-6.72v-10.66h6.72v1.68h-4.83Z"/>
      <path class="cls-2" d="M240.4,215.48h1.89v7.23c0,.57.17,1.04.52,1.4.35.36.83.54,1.44.54.68,0,1.21-.18,1.59-.53.38-.35.57-.83.57-1.45v-7.2h1.89v7.34c0,1.1-.37,1.96-1.1,2.58-.74.62-1.71.93-2.94.93s-2.19-.3-2.86-.91c-.67-.61-1.01-1.48-1.01-2.61v-7.33Z"/>
      <path class="cls-45" d="M267.13,226.14h-1.83l-1.1-5.74-2.14,5.88h-.68l-2.15-5.88-1.14,5.74h-1.83l2.14-10.66h1.01l2.31,7.18,2.25-7.18h.99l2.17,10.66Z"/>
      <g>
        <path class="cls-14" d="M117.22,38.04h2.54v1.47c0,.81-.58,1.39-1.23,1.39h-1.31v-2.86Z"/>
        <path class="cls-14" d="M109.27,25.98h1.57v.15c0,1.11.7,1.89,1.56,1.97,1.01.1,1.84-.88,1.84-1.97v-.15h1.46v.15c0,1.83-1.42,3.26-3.23,3.26s-3.2-1.47-3.2-3.26v-.15Z"/>
        <path class="cls-14" d="M103.15,37.59v-1.61c0-1.87,1.74-3.4,3.88-3.4h1.64v-.9c-.43,0-5.43,0-5.43,0v-1.81h12.96v1.81h-1.4v9.36h-1.87v-9.36h-2.39v2.64h-3.51c-1.04,0-1.84.75-1.95,1.52h6.19v1.58c0,2-1.77,3.62-3.95,3.62h-4.17v-1.76h.24s1.46.03,1.45.03h2.46c1.1-.07,1.94-.83,2.05-1.71h-6.2Z"/>
        <g>
          <path class="cls-18" d="M178.48,111.34c-.6.05-2.92.8-3.35,3.45,0,.02-.05.52-.05.52,0,.7.24,1.22.71,1.57l.51.39.16-.61c.27-1.05,1.19-1.78,2.22-1.78,1.27,0,2.3,1.08,2.3,2.41,0,.78-.37,1.52-.97,1.97-1.31,1.15-3.6,1.23-5.33.2-1.07-.64-1.81-1.64-2.11-2.88-.1-.41-.15-.84-.15-1.27l.08-.99.18-.8c.79-2.84,2.94-4.36,4.68-4.82l.12-.03v-28.91h-10.33v32.63c.07,1.3.2,2.47.4,3.49.38,1.41.9,2.58,1.57,3.47.01.02.36.44.36.44.03.03.22.25.22.25l.29.31c1.65,1.71,3.66,2.67,5.96,2.81.79,0,7.58-.21,7.72-7.09,0-.12-.17-2.49-1.6-3.73-.72-.62-2.23-1.19-3.59-1Z"/>
          <path class="cls-18" d="M167.07,60.37l-.12-.06v15.79h11.14s-.47-14.25-11.02-15.73Z"/>
          <path class="cls-14" d="M85.38,47.63c.46-.43,2.92-2.45,2.92-2.45,0,0,.05-.06.11-.11-.04-.03-.09-.07-.09-.07-.59-.39-1.07-1.2-1.33-2.22l-.05-.21h8.21v11.16h-8.58v4.3c0,4.05,2.49,7.64,6.66,8.61.6.2,1.27.16,2.11.16h4.07v-8.93h6.75v14.47c.28.01,3.86.05,4.16.07v-25.17h7.77v25.08h4.23v-25.08h17.92v.57c-.27,2.24-.7,3.36-2.11,4.69-1.18,1.11-2.49,1.97-4.06,1.87h-2.64v4.14h10.53v.17c0,5.33-4.6,9.51-10.69,9.73h-4.06v3.92c.31,0,3.86-.05,3.86-.05,7.73,0,14.21-5.05,15.05-11.98l.57-3.97.1-.03c1.59-.49,2.72.07,3.34.32,0,0,.14.05.14.05,1.56.66,2.79,1.92,3.38,3.45.62,1.62.44,3.35-.29,4.77l-.26.54-.09-.12-.02-.29-.02-.11c-.35-1.33-1.8-2.11-3.12-1.76-.64.17-1.19.58-1.51,1.16-.34.58-.43,1.25-.25,1.89.23.87,1.26,1.54,2.15,1.77,3.12.89,6.37-.92,7.26-4.04.15-.53.23-1.07.23-1.62,0-.82-.17-1.63-.51-2.39l-.1-.22s2.21-.06,2.65-.07c-2.61-4.86-8.74-6.39-8.8-6.39-3.42-1-6.13-.67-7.93-.03l-1.29.54,1.02-.82c2.09-2.32,1.7-7.28,1.7-5.5v-3.81c-.33,0-38-.01-38.32-.01,0,.3,0,3.9,0,3.9v6.24h-6.75s0-14.96,0-15.28h-16.56v4.3c0,2.22.96,4.03,2.56,4.89ZM95.17,62.67h-.16c-.83,0-1.35-.15-2.01-.6-1.34-.67-2.15-1.78-2.32-3.64l-.06-.56h4.56v4.8Z"/>
          <path class="cls-14" d="M183.99,56.72c-5.3-5.85-12.86-9.09-22.5-9.63l-.24-.02s-.28-.02-.29,0c-.94-.07-2.79-.3-4.59-1.18,0,0-1.32-.79-1.33-.79-.72-.53-1.33-1.16-1.81-1.89-.48-.95-.74-1.99-.74-3.03,0-1.74.67-3.29,1.86-4.36l.26-.18.2.05.15.11-.04.16c-.15,1.38.85,2.61,2.22,2.76.67.07,1.59,0,2.11-.43.52-.42,1-1.16,1.07-1.83.13-1.27-.88-2.62-2.37-2.82-4.09-1.02-8.29,1.07-9.37,4.82l-.09.39-.05.21h-.13s-1.83.12-2.16.14c1.09,5.3,5.84,8.35,5.89,8.37,2.09,1.6,5.03,2.51,8.75,2.72h.17s0,.06,0,.1c8.86.43,15.76,3.3,20.52,8.54,4.94,5.43,6.59,12.27,7.11,17.05l.03.18h-7.23v-.16c0-8.25-4.95-17.84-14.08-19.38h-4.13v19.54h-73.65l-3.28-.07s-.93,0-.93,0c-.06.01-5.75.87-7.96,5.47-.5,1.16-.79,2.46-.84,3.85,0,.14,0,.29,0,.43,0,1.27.21,2.48.63,3.63l.08.25-.6-.07c-1.21-.04-2.23.9-2.28,2.1-.02.58.18,1.13.57,1.55.4.43.94.68,1.53.7h.06s0,0,.01,0c0,0,0,.06,0,.09,0,.02.01.05.02.08h0c.02.08.04.16.04.16-2.03.44-2.07,3.58-2.07,3.62-.03.43-.16.84-.29,1.15.56-.28,1.19-.39,1.22-.4.02-.01,2.87-.58,3.16-2.43l.09-.58.22.55c.32.79,1.08,1.33,1.94,1.36,1.03.04,1.95-.63,2.22-1.62l.06-.17,1.64.63v.1c.18,3.04,1.12,8.79,5.43,13.07,2.84,2.8,6.61,4.44,11.23,4.87h.15c1.35.12,2.75.14,4.18,0h1.17v4.29h-.16c-3.04,0-5.56,1.44-6.61,3.75l-.11.18-.16-.29c-1.25-2.32-4.06-3.64-6.63-3.64h-9.64v5.34c0,9.19,6.38,16.67,14.27,16.78v-4.31c-5.54-.11-10.02-5.65-10.02-12.47v-1.04h5.39c2.44,0,4.45,3.01,4.72,7.04h4.28c.05-3.96,2.01-7.04,4.51-7.04h4.74v1.04c0,6.92-3.72,12.35-8.49,12.47v4.31c7.04-.12,12.74-7.6,12.74-16.78v-5.34h-4.58v-4.29h11.01s-.1,24.22-.1,24.55h4.25c0-.33.11-24.55.11-24.55h23.64v2.49h-5.61c-6.19,0-11.17,6.09-11.17,11.14v4.45h18.95v.16c0,.05,0,5.07-.02,5.25-.27,3.04-3.17,5.39-6.89,5.62l-18.85-.03h-4.41v4.1h23.27c5.86,0,10.95-4.27,11.22-9.72l.02-5.22v-4.45h-19.03v-.16c0-3.08,3.19-6.85,6.92-6.85h10.27c0-.32,0-6.62,0-6.62v-3.82h-52.54c-3.94-.29-7.09-1.58-9.37-3.82-3.2-3.15-4.06-7.57-4.29-9.92v-.17s.15-.01.15-.01c1.65-.14,3.16-.75,4.49-1.82.03-.03,3.39-2.61,3.39-6.26l-.04-.69c-.28-2.34-1.15-4.05-2.59-5.08-2.25-1.61-5.2-1.01-5.23-1-2.01.34-3.7,1.91-3.93,3.65-.16.72.06,1.5.56,2.08.87.99,2.34,1.14,3.27.34.76-.66.97-1.78.49-2.73l-.4-.8.89-.05c.66-.04,1.26.23,1.77.82l.33.45c1.55,2.46.19,4.71-.27,5.17-1,1.13-1.81,1.61-3.21,1.89,0,0-.87.21-2.1.18-3.29-.48-5.76-3.34-5.76-6.67,0-3.7,2.96-6.59,6.74-6.59h2.32s28.12,0,28.12,0v3.75h-16.75v4.12c0,7.35,6.11,13.33,13.61,13.33h3.13v.17c0,1.51-1.45,2.64-3.39,2.7v4.18c4.09-.08,7.51-3.19,7.51-6.88v-7.55h-4.12v3.22h-3.13c-2.6,0-5.1-1.07-6.87-2.91-1.65-1.73-2.51-3.95-2.4-6.26v-.16h12.41v1.93h4.12v-9.64h7.32v25.27h3.91v-25.27h30.33v4.18h-18.55v4.17h8.26v.17c0,6.94-4.54,12.8-9.92,12.8h-.16v-5.79h-4.12v9.74h3.44c8.23,0,14.66-7.36,14.66-16.76v-.17h6.38v24.58l.02.5c.21,3.37,1.73,11.35,11.44,12.65,0,0,1.09.12,1.12.12,3.55.75,9.57,2.64,11.48,6.77.05-.4.1-.8.1-1.19,0-2.41-.85-5.53-4.88-6.77l-.84-.26.72-.5c2.55-1.77,3.86-4.45,3.91-8.03-.02-.38-.22-3.74-2.55-5.78-.21-.19-1.01-.84-2.27-1.29l-.11-.04v-29.12h7.24s3.17.17,3.48.18c0-.14,0-.34,0-.67,0-3.13-.57-14.2-8.14-22.57ZM166.95,60.31l.12.06c10.55,1.48,11.02,15.73,11.02,15.73h-11.14v-15.79ZM182.07,112.34c1.42,1.24,1.59,3.62,1.6,3.73-.14,6.88-6.94,7.09-7.72,7.09-2.3-.14-4.31-1.1-5.96-2.81l-.29-.31s-.19-.22-.22-.25c0,0-.35-.43-.36-.44-.66-.89-1.18-2.06-1.57-3.47-.2-1.02-.33-2.19-.4-3.49v-32.63h10.33v28.91l-.12.03c-1.74.47-3.89,1.98-4.68,4.82l-.18.8-.08.99c0,.43.05.86.15,1.27.3,1.24,1.03,2.24,2.11,2.88,1.73,1.03,4.01.95,5.33-.2.6-.46.97-1.19.97-1.97,0-1.33-1.03-2.41-2.3-2.41-1.04,0-1.96.73-2.22,1.78l-.16.61-.51-.39c-.47-.35-.71-.88-.71-1.57,0,0,.05-.51.05-.52.42-2.65,2.75-3.4,3.35-3.45,1.37-.18,2.87.38,3.59,1Z"/>
        </g>
      </g>
      <path class="cls-18" d="M75.41,78.22c4.45-6.8,15.77-6.24,15.77-6.24v-.74c-.05-.02-.09-.04-.15-.07-.32-.15-.62-.3-.91-.46-8.86-4.78-7.4-12.9-7.4-12.9-3.89,3.07-2.13,9.23-2.13,9.23-2.16-2.38-4.27-.51-4.27-.51-2.09,3.7,2.75,4.16,2.75,4.16-4.01,1.77-3.65,7.54-3.65,7.54Z"/>
      <path class="cls-18" d="M107.3,39.3h-2.46s-1.45-.02-1.45-.02h-.24s0,1.75,0,1.75h4.17c2.17,0,3.95-1.63,3.95-3.62v-1.58h-.24s-5.9,0-5.95,0c.11-.78.91-1.52,1.95-1.52h3.51v-2.64h2.39v9.36h1.87v-9.36h1.4v-1.8h-.24s-12.48,0-12.48,0h-.24v1.81s5,0,5.43,0v.9h-1.64c-2.14,0-3.88,1.52-3.88,3.4v1.61h6.2c-.11.89-.95,1.64-2.05,1.71Z"/>
      <path class="cls-18" d="M119.76,39.51v-1.47h-2.54v2.86h1.31c.65,0,1.23-.59,1.23-1.39Z"/>
      <path class="cls-18" d="M112.48,29.4c1.81,0,3.23-1.43,3.23-3.26v-.15h-1.46v.15c0,1.09-.84,2.07-1.84,1.97-.86-.08-1.56-.86-1.56-1.97v-.15h-1.57v.15c0,1.79,1.48,3.26,3.2,3.26Z"/>
      <path class="cls-18" d="M85.38,47.63c.46-.43,2.92-2.45,2.92-2.45,0,0,.05-.06.11-.11-.04-.03-.09-.07-.09-.07-.59-.39-1.07-1.2-1.33-2.22l-.05-.21h8.21v11.16h-8.58v4.3c0,4.05,2.49,7.64,6.66,8.61.6.2,1.27.16,2.11.16h4.07v-8.93h6.75v14.47c.28.01,3.86.05,4.16.07v-25.17h7.77v25.08h4.23v-25.08h17.92v.57c-.27,2.24-.7,3.36-2.11,4.69-1.18,1.11-2.49,1.97-4.06,1.87h-2.64v4.14h10.53v.17c0,5.33-4.6,9.51-10.69,9.73h-4.06v3.92c.31,0,3.86-.05,3.86-.05,7.73,0,14.21-5.05,15.05-11.98l.57-3.97.1-.03c1.59-.49,2.72.07,3.34.32,0,0,.14.05.14.05,1.56.66,2.79,1.92,3.38,3.45.62,1.62.44,3.35-.29,4.77l-.26.54-.09-.12-.02-.29-.02-.11c-.35-1.33-1.8-2.11-3.12-1.76-.64.17-1.19.58-1.51,1.16-.34.58-.43,1.25-.25,1.89.23.87,1.26,1.54,2.15,1.77,3.12.89,6.37-.92,7.26-4.04.15-.53.23-1.07.23-1.62,0-.82-.17-1.63-.51-2.39l-.1-.22s2.21-.06,2.65-.07c-2.61-4.86-8.74-6.39-8.8-6.39-3.42-1-6.13-.67-7.93-.03l-1.29.54,1.02-.82c2.09-2.32,1.7-7.28,1.7-5.5v-3.81c-.33,0-38-.01-38.32-.01,0,.3,0,3.9,0,3.9v6.24h-6.75s0-14.96,0-15.28h-16.56v4.3c0,2.22.96,4.03,2.56,4.89Z"/>
      <path class="cls-18" d="M161.49,47.08l-.24-.02s-.28-.02-.29,0c-.94-.07-2.79-.3-4.59-1.18,0,0-1.32-.79-1.33-.79-.72-.53-1.33-1.16-1.81-1.89-.48-.95-.74-1.99-.74-3.03,0-1.74.67-3.29,1.86-4.36l.26-.18.2.05.15.11-.04.16c-.15,1.38.85,2.61,2.22,2.76.67.07,1.59,0,2.11-.43.52-.42,1-1.16,1.07-1.83.13-1.27-.88-2.62-2.37-2.82-4.09-1.02-8.29,1.07-9.37,4.82l-.09.39-.05.21h-.13s-1.83.12-2.16.14c1.09,5.3,5.84,8.35,5.89,8.37,2.09,1.6,5.03,2.51,8.75,2.72h.17s0,.06,0,.1c8.86.43,15.76,3.3,20.52,8.54,4.94,5.43,6.59,12.27,7.11,17.05l.03.18h-7.23v-.16c0-8.25-4.95-17.84-14.08-19.38h-4.13v19.54h-73.65l-3.28-.07s-.93,0-.93,0c-.06.01-5.75.87-7.96,5.47-.5,1.16-.79,2.46-.84,3.85,0,.14,0,.29,0,.43,0,1.27.21,2.48.63,3.63l.08.25-.6-.07c-1.21-.04-2.23.9-2.28,2.1-.02.58.18,1.13.57,1.55.4.43.94.68,1.53.7h.06s0,0,.01,0c0,0,0,.06,0,.09,0,.02.01.05.02.08h0c.02.08.04.16.04.16-2.03.44-2.07,3.58-2.07,3.62-.03.43-.16.84-.29,1.15.56-.28,1.19-.39,1.22-.4.02-.01,2.87-.58,3.16-2.43l.09-.58.22.55c.32.79,1.08,1.33,1.94,1.36,1.03.04,1.95-.63,2.22-1.62l.06-.17,1.64.63v.1c.18,3.04,1.12,8.79,5.43,13.07,2.84,2.8,6.61,4.44,11.23,4.87h.15c1.35.12,2.75.14,4.18,0h1.17v4.29h-.16c-3.04,0-5.56,1.44-6.61,3.75l-.11.18-.16-.29c-1.25-2.32-4.06-3.64-6.63-3.64h-9.64v5.34c0,9.19,6.38,16.67,14.27,16.78v-4.31c-5.54-.11-10.02-5.65-10.02-12.47v-1.04h5.39c2.44,0,4.45,3.01,4.72,7.04h4.28c.05-3.96,2.01-7.04,4.51-7.04h4.74v1.04c0,6.92-3.72,12.35-8.49,12.47v4.31c7.04-.12,12.74-7.6,12.74-16.78v-5.34h-4.58v-4.29h11.01s-.1,24.22-.1,24.55h4.25c0-.33.11-24.55.11-24.55h23.64v2.49h-5.61c-6.19,0-11.17,6.09-11.17,11.14v4.45h18.95v.16c0,.05,0,5.07-.02,5.25-.27,3.04-3.17,5.39-6.89,5.62l-18.85-.03h-4.41v4.1h23.27c5.86,0,10.95-4.27,11.22-9.72l.02-5.22v-4.45h-19.03v-.16c0-3.08,3.19-6.85,6.92-6.85h10.27c0-.32,0-6.62,0-6.62v-3.82h-52.54c-3.94-.29-7.09-1.58-9.37-3.82-3.2-3.15-4.06-7.57-4.29-9.92v-.17s.15-.01.15-.01c1.65-.14,3.16-.75,4.49-1.82.03-.03,3.39-2.61,3.39-6.26l-.04-.69c-.28-2.34-1.15-4.05-2.59-5.08-2.25-1.61-5.2-1.01-5.23-1-2.01.34-3.7,1.91-3.93,3.65-.16.72.06,1.5.56,2.08.87.99,2.34,1.14,3.27.34.76-.66.97-1.78.49-2.73l-.4-.8.89-.05c.66-.04,1.26.23,1.77.82l.33.45c1.55,2.46.19,4.71-.27,5.17-1,1.13-1.81,1.61-3.21,1.89,0,0-.87.21-2.1.18-3.29-.48-5.76-3.34-5.76-6.67,0-3.7,2.96-6.59,6.74-6.59h2.32s28.12,0,28.12,0v3.75h-16.75v4.12c0,7.35,6.11,13.33,13.61,13.33h3.13v.17c0,1.51-1.45,2.64-3.39,2.7v4.18c4.09-.08,7.51-3.19,7.51-6.88v-7.55h-4.12v3.22h-3.13c-2.6,0-5.1-1.07-6.87-2.91-1.65-1.73-2.51-3.95-2.4-6.26v-.16h12.41v1.93h4.12v-9.64h7.32v25.27h3.91v-25.27h30.33v4.18h-18.55v4.17h8.26v.17c0,6.94-4.54,12.8-9.92,12.8h-.16v-5.79h-4.12v9.74h3.44c8.23,0,14.66-7.36,14.66-16.76v-.17h6.38v24.58l.02.5c.21,3.37,1.73,11.35,11.44,12.65,0,0,1.09.12,1.12.12,3.55.75,9.57,2.64,11.48,6.77.05-.4.1-.8.1-1.19,0-2.41-.85-5.53-4.88-6.77l-.84-.26.72-.5c2.55-1.77,3.86-4.45,3.91-8.03-.02-.38-.22-3.74-2.55-5.78-.21-.19-1.01-.84-2.27-1.29l-.11-.04v-29.12h7.24s3.17.17,3.48.18c0-.14,0-.34,0-.67,0-3.13-.57-14.2-8.14-22.57-5.3-5.85-12.86-9.09-22.5-9.63Z"/>
      <path class="cls-18" d="M178.48,111.34c-.6.05-2.92.8-3.35,3.45,0,.02-.05.52-.05.52,0,.7.24,1.22.71,1.57l.51.39.16-.61c.27-1.05,1.19-1.78,2.22-1.78,1.27,0,2.3,1.08,2.3,2.41,0,.78-.37,1.52-.97,1.97-1.31,1.15-3.6,1.23-5.33.2-1.07-.64-1.81-1.64-2.11-2.88-.1-.41-.15-.84-.15-1.27l.08-.99.18-.8c.79-2.84,2.94-4.36,4.68-4.82l.12-.03v-28.91h-10.33v32.63c.07,1.3.2,2.47.4,3.49.38,1.41.9,2.58,1.57,3.47.01.02.36.44.36.44.03.03.22.25.22.25l.29.31c1.65,1.71,3.66,2.67,5.96,2.81.79,0,7.58-.21,7.72-7.09,0-.12-.17-2.49-1.6-3.73-.72-.62-2.23-1.19-3.59-1Z"/>
      <g>
        <path class="cls-34" d="M48.52,165.22l-.2-.35s-.06,0-.08,0c-.19.01-.38.02-.56.02-5.48.09-6.94-4.15-6.94-4.15-1.03,2.49,1.44,4.94,1.44,4.94-1.66-.56-2.16.89-2.16.89-.01,2.31,2.4,1.25,2.4,1.25-1.43,1.9.27,4.54.27,4.54.31-4.41,5.84-7.15,5.84-7.15Z"/>
        <path class="cls-49" d="M47.41,153.97c-15.29-19.9-23-44.37-22.27-70.92.03-1.08.08-2.14.15-3.2,1.79-29.93,17.04-54.18,30.38-69.95-.44.04-.84.08-.96.09-9.77,8.16-18.13,18.82-24.2,30.85-6.09,12.09-9.7,25.34-10.49,38.52-.06,1.02-.1,2.02-.13,3.03-.73,26.84,8.09,51.54,25.5,71.47.28.01,1.02.06,2.03.12Z"/>
        <path class="cls-38" d="M40.42,91.31l-.07-3.88C40.35,50.76,60.12,20.07,76.7.78l.67-.78-.16.02-.86.12-1.45.19-.09.07c-12.97,10.64-23.76,24.21-31.22,39.25-7.47,15.08-11.42,31.53-11.42,47.58l.07,3.68c.99,26.31,10.81,51.04,28.36,71.53-.24-.03-1.12-.13-1.12-.13-4.6-.78-12.62-2.75-14.55-7.12l-.5-1.12-.25,1.21c-.13.63-.19,1.28-.19,1.9,0,2.6,1.13,5.97,6.43,7.37-3.27,1.9-4.98,4.74-5.05,8.46.02.42.29,4.16,3.5,6.4.53.37,3.37,2.19,7.51,1.8h.15c2.29-.15,6.16-1.73,7.48-5.47l.25-.94q0,.05.11-1.05c0-.5-.07-.99-.22-1.45-.43-1.42-1.46-2.56-3.01-3.29-2.4-1.14-5.6-1.03-7.43.25-.94.55-1.5,1.48-1.5,2.47,0,1.67,1.59,3.03,3.55,3.03,1.58,0,2.97-.9,3.41-2.2.04.02.06.05.09.07.33.31.5.65.5,1.11.01-.03-.05.51-.05.51-.47,2.29-3.04,2.95-3.66,2.98-1.68.18-3.42-.34-4.26-.91-1.62-1.12-1.8-3.36-1.8-3.39.17-6.45,8.33-6.65,9.26-6.65.95.05,1.88.2,2.82.45.02,0,1.05.33,1.05.33.72.27,1.4.6,2.03.99.88.49,1.7,1.05,2.45,1.66l.22.18c.08,0,2.42-2.1,2.42-2.1,0-.09-.2-.33-.2-.33-18.3-21.5-28.54-47.84-29.6-76.16ZM68.43,168.35l-.67.6c-.72-.63-1.47-1.15-2.22-1.58-.66-.4-1.38-.75-2.14-1.03q.06.02-1.16-.41c-1.05-.24-2.03-.38-2.98-.44-1.01,0-9.88.22-10.06,7.46,0,.11.2,2.66,2.14,4.01.95.66,2.92,1.25,4.7,1.05.97-.06,3.88-.88,4.44-3.7,0,0,.06-.55.06-.55,0-.82-.34-1.44-1-1.85,0,0-.83-.5-.83-.5l-.28.86c-.33.98-1.42,1.67-2.67,1.67-1.52,0-2.77-1.01-2.77-2.24,0-.71.43-1.39,1.14-1.8,1.64-1.15,4.5-1.24,6.67-.2,1.33.64,2.23,1.61,2.59,2.8.12.4.18.81.18,1.22,0,0-.09.93-.1.97,0,.01-.04.15-.22.79-1.19,3.36-4.74,4.79-6.85,4.91h-.09c-3.88.37-6.5-1.31-6.99-1.65-2.88-2.02-3.15-5.34-3.16-5.72.06-3.53,1.71-6.22,4.89-7.98l1.45-.8-1.64-.4c-5.04-1.23-6.09-4.32-6.09-6.69l.05-.55s.01-.08.02-.16c2.77,4.08,10.28,5.9,14.54,6.62,0,0,3.09.36,3.09.36l-.64-.76c-17.85-20.49-27.81-45.31-28.8-71.8,0,0-.07-3.67-.07-3.67,0-15.93,3.92-32.26,11.34-47.23,7.39-14.91,18.09-28.37,30.94-38.93,0,0,.11,0,.21-.02-16.4,19.27-35.89,49.87-35.89,86.39l.07,3.9c1.06,28.37,11.3,54.79,29.58,76.39-.05-.04-.78.62-.78.62Z"/>
        <path class="cls-33" d="M226.26,91.31c-1.06,28.32-11.3,54.65-29.6,76.16l-.21.25c0,.09,2.35,2.18,2.35,2.18.08,0,.3-.18.3-.18.75-.61,1.57-1.17,2.45-1.66.62-.38,1.3-.72,2.03-.99l1.03-.34c.95-.25,1.89-.4,2.84-.45.93,0,9.09.2,9.26,6.66,0,.01-.19,2.25-1.81,3.38-.83.57-2.57,1.09-4.17.92-.7-.04-3.28-.7-3.75-3,0,0-.06-.54-.06-.54,0-.48.21-.84.64-1.1.38,1.24,1.79,2.15,3.37,2.15,1.96,0,3.54-1.36,3.54-3.03,0-.99-.55-1.91-1.5-2.47-1.84-1.28-5.03-1.39-7.42-.24-1.54.73-2.59,1.87-3.01,3.29-.14.47-.21.95-.21,1.45.11,1.08.11,1.11.17,1.11,0,0,0,0,0,.02,0,.14.19.87.19.87,1.31,3.74,5.19,5.31,7.48,5.46h.14c4.14.4,6.98-1.42,7.51-1.79,3.22-2.25,3.48-5.98,3.5-6.39-.07-3.73-1.78-6.57-5.05-8.47,5.31-1.4,6.44-4.77,6.44-7.37,0-.62-.07-1.26-.19-1.9l-.26-1.2-.49,1.12c-1.94,4.37-9.96,6.33-14.56,7.12,0,0-.8.09-1.12.13,17.56-20.48,27.37-45.22,28.37-71.52,0,0,.07-3.69.07-3.69,0-16.06-3.96-32.51-11.43-47.58-7.45-15.04-18.25-28.61-31.22-39.25l-.07-.06s-1.45-.2-1.45-.2l-1.02-.14.11.12.56.66c16.58,19.29,36.35,49.99,36.35,86.66l-.07,3.88ZM191.22,1.05c.11.02.2.03.22.03,12.84,10.56,23.54,24.01,30.93,38.92,7.42,14.97,11.33,31.3,11.33,47.24l-.06,3.66c-1,26.48-10.95,51.31-28.8,71.8l-.64.76,3.08-.36c4.27-.72,11.78-2.54,14.55-6.62.01.07.02.14.02.14l.05.57c0,2.37-1.06,5.46-6.09,6.69l-1.64.4,1.45.8c3.18,1.76,4.83,4.45,4.89,7.99-.02.37-.29,3.7-3.16,5.71-.49.35-3.11,2.03-6.99,1.66h-.1c-2.1-.14-5.66-1.56-6.85-4.93-.22-.81-.23-.84-.28-.84,0,0,.01-.04.01-.11,0-.24-.06-.82-.06-.82,0-.41.06-.82.18-1.22.36-1.2,1.26-2.17,2.59-2.8,2.17-1.04,5.03-.95,6.67.19.71.43,1.14,1.11,1.14,1.82,0,1.23-1.24,2.24-2.76,2.24-1.25,0-2.35-.69-2.67-1.67l-.28-.86-.83.5c-.67.41-1.01,1.03-1,1.84,0,0,.06.55.06.55.56,2.82,3.47,3.64,4.44,3.7,1.78.19,3.74-.4,4.69-1.05,1.95-1.35,2.14-3.9,2.14-4.01-.18-7.25-9.05-7.46-10.06-7.46-.95.05-1.93.19-2.97.43,0,0-1.16.41-1.16.41-.77.29-1.49.63-2.14,1.03-.75.43-1.51.94-2.3,1.58h0c0-.07-.73-.72-.73-.72l-.67-.6c18.3-21.51,28.52-47.93,29.59-76.3,0,0,.07-3.91.07-3.91,0-36.52-19.5-67.12-35.9-86.39Z"/>
        <path class="cls-41" d="M224.03,165.19s2.47-2.45,1.44-4.93c0,0-1.47,4.24-6.94,4.15-.19,0-.37-.01-.56-.02-.03,0-.06,0-.08,0l-.2.35s5.52,2.74,5.83,7.15c0,0,1.7-2.64.27-4.54,0,0,2.41,1.06,2.41-1.24,0,0-.52-1.45-2.16-.9Z"/>
        <path class="cls-27" d="M241.46,83.05c.73,26.56-6.98,51.02-22.27,70.92,1.01-.06,1.76-.11,2.04-.12,17.41-19.93,26.24-44.63,25.49-71.47-.02-1.01-.07-2.01-.12-3.03-.79-13.17-4.4-26.43-10.49-38.52-6.07-12.03-14.44-22.69-24.2-30.85-.12-.01-.52-.05-.96-.09,13.33,15.76,28.59,40.02,30.38,69.95.06,1.06.11,2.13.14,3.2Z"/>
        <path class="cls-47" d="M75.07,77.82c0,.24.02.39.02.42l.06.99.54-.83c3.09-4.73,9.71-5.8,13.21-6.04.7-.02,1.59-.04,2.42-.05h.21s0,0,0,0c1.2,0,2.28,0,2.28,0,0,0,.01-.78,0-.77-.73.12-1.67-.23-2.29-.48v-.02l-.28-.13c-.06-.03-.96-.49-.96-.49-8.53-4.61-7.3-12.23-7.24-12.55l.15-.85-.68.54c-2.14,1.69-2.66,4.24-2.66,6.28,0,.9.1,1.69.21,2.29-2.06-1.46-3.94.14-3.96.16l-.04.04-.03.04c-.38.67-.57,1.29-.57,1.85,0,.37.09.71.25,1.02.5.95,1.64,1.41,2.44,1.62-2.8,1.84-3.08,5.68-3.08,6.97ZM79.19,70.99l1.15-.5-1.26-.12s-2.17-.22-2.8-1.43c-.12-.22-.17-.46-.17-.72,0-.43.16-.92.46-1.47.21-.17,1.68-1.26,3.31.08h-.04s.18.14.43.37c.02.02.04.04.07.07h0c.25.24.55.56.78.92.4.6-.17-1.11-.43-2.27-.09-.54-.17-1.24-.17-2.03,0-1.66.41-3.64,1.79-5.14,0,.11-.01.21-.01.33,0,2.55.83,8.26,7.66,11.95,0,0,.76.39.88.45v.19c-1.85-.03-10.69.09-15.09,5.56.1-1.67.66-5,3.43-6.22Z"/>
        <path class="cls-28" d="M161.85,135.18s-1.34-.21-1.75,1.7c-.01.04-1.01,4.42,2.54,5.84.1.03,1.85.52,3.36-.63.94-.72,1.55-1.93,1.83-3.56.39,1.46,1.02,2.89,2.07,3.75.07.06,1.84,1.52,4.4,1.9l.29.04.06-.3c.27-.92.35-1.8.35-2.55,0-1.28-.24-2.17-.26-2.22-.34-1.29-1.36-2.45-2.53-3.4,1.59.41,2.92.34,3.98-.23,1.66-.9,1.94-2.68,1.95-2.76.18-3.86-4.23-4.76-4.28-4.76-1.91-.41-2.26.89-2.26.9l-.08.29.28.1c.94.34.74,1.32.71,1.42-.14.78-1.26.98-1.26.99-1.63.28-2.67-.87-3.05-1.4.37-.24.67-.58.77-1.01.03-.12.04-.24.04-.36,0-.39-.16-.76-.45-1.07-.57-.58-1.32-.48-1.87-.26-.2-2.86-4.47-5.53-4.66-5.65h-.02s-1.79-.75-1.79-.75v.5s.03,1.4.03,1.42c0,.57.1,5.66,2.49,7.03-.34.31-.67.77-.67,1.32,0,.17.03.34.1.52.2.53.6.87,1.14.97.43.08.87-.04,1.24-.27.19.35.49.99.49,1.78,0,.49-.12,1.03-.49,1.57,0,0-.66.94-1.4.75-.13-.03-1.1-.24-1.02-1.24l.02-.29-.3-.05ZM163.01,137.41c1.16.31,2.05-.97,2.08-1.03,1.43-2.09-.12-4.27-.18-4.36l-.24-.32-.27.29c-.23.24-.64.37-.98.31-.21-.04-.49-.17-.64-.56-.04-.1-.06-.2-.06-.29,0-.61.72-1.05.76-1.07l.63-.38-.71-.22c-2.47-.75-2.51-6.41-2.51-6.71,0,0-.01-.5-.02-.9.38.15.78.32.82.33.15.09,4.36,2.73,4.36,5.27,0,.1,0,.19-.01.29l-.1.73.61-.41s.97-.66,1.53-.08c.3.3.3.61.25.82-.09.34-.36.66-.69.77l-.38.13.2.35c.06.1,1.4,2.41,3.91,1.97.06,0,1.59-.29,1.8-1.5.03-.13.05-.28.05-.45,0-.51-.2-1.14-.84-1.53.16-.19.53-.4,1.36-.22.16.03,3.91.8,3.75,4.06,0-.02-.25,1.51-1.62,2.25-1.35.72-3.3.49-5.81-.69l-.31.58c1.41.84,3.84,2.53,4.36,4.48,0,.01.23.86.23,2.06,0,.62-.08,1.34-.27,2.08-2.19-.42-3.73-1.66-3.75-1.68-1.57-1.28-2.1-4.2-2.29-5.83l-.66.04c.04,2.77-.56,4.65-1.76,5.57-1.24.95-2.74.55-2.75.53-1.89-.75-2.26-2.52-2.26-3.75,0-.72.13-1.26.14-1.32.18-.83.53-1.1.77-1.17.12,1,.99,1.46,1.5,1.56Z"/>
        <path class="cls-9" d="M6.28,188.54c-.77,0-2.64.05-5.62.14v19.12h4.67c7.29,0,10.93-3.44,10.93-10.33,0-2.69-.89-4.85-2.69-6.48-1.8-1.64-4.23-2.45-7.29-2.45ZM10.79,202.91c-1.07,1.24-2.55,1.87-4.44,1.87-.7,0-1.35-.03-1.95-.09v-13.04c.74-.06,1.31-.09,1.71-.09,4.19,0,6.29,2.04,6.29,6.12,0,2.25-.54,3.99-1.6,5.23Z"/>
        <path class="cls-17" d="M36.03,207.8l-6.25-8.61c1.12-.38,2.05-1.04,2.79-1.98.74-.94,1.11-1.96,1.11-3.09,0-3.76-2.68-5.65-8.02-5.65-.86,0-2,.04-3.41.1-1.41.06-2.22.1-2.43.1v19.13h3.88v-8c1.02.06,1.8.1,2.38.11l5.65,7.89h4.3ZM28.72,196.43c-.73.4-1.87.6-3.44.6-.36,0-.89-.03-1.58-.09v-5.31c.44-.05.86-.07,1.27-.07,1.67,0,2.89.18,3.67.56.78.37,1.17,1.03,1.17,1.96,0,1.17-.36,1.94-1.09,2.35Z"/>
        <path class="cls-13" d="M39.59,204.22c-.58,0-1.07.18-1.47.54-.41.37-.61.81-.61,1.33s.2.98.61,1.35c.4.37.89.55,1.47.55s1.06-.19,1.47-.55c.4-.37.6-.82.6-1.35s-.2-.96-.6-1.33c-.41-.36-.89-.54-1.47-.54Z"/>
        <path class="cls-4" d="M67.87,202.12c0-2.58-1.3-4.29-3.91-5.12,1.76-.87,2.63-2.08,2.63-3.6s-.62-2.81-1.85-3.66c-1.23-.86-2.94-1.28-5.13-1.28-1.14,0-3.13.06-5.96.19v19.15h6.44c2.29,0,4.15-.51,5.6-1.53,1.45-1.02,2.17-2.41,2.17-4.15ZM57.39,191.38c.85-.04,1.57-.07,2.15-.07,2.22,0,3.33.75,3.33,2.23,0,1.67-1.22,2.5-3.66,2.5-.64,0-1.24,0-1.82-.03v-4.62ZM62.87,204.29c-.76.52-1.97.77-3.64.77-.46,0-1.08-.03-1.84-.1v-6.33c.89-.02,1.52-.04,1.88-.04,1.75,0,2.98.25,3.67.75.71.49,1.05,1.29,1.05,2.39,0,1.19-.38,2.04-1.13,2.56Z"/>
        <polygon class="cls-32" points="88.11 207.8 88.11 188.64 84.41 188.64 84.41 196.14 76.02 196.14 76.02 188.64 72.29 188.64 72.29 207.8 76.02 207.8 76.02 199.16 84.41 199.16 84.41 207.8 88.11 207.8"/>
        <path class="cls-21" d="M100.31,188.4l-8.39,19.4h4.16l1.46-3.88h7.2l1.54,3.88h4.12l-8.45-19.4h-1.64ZM98.6,201.32l2.51-7.07,2.53,7.07h-5.05Z"/>
        <path class="cls-48" d="M124.55,201.56c0,1.09-.38,1.96-1.13,2.59-.76.64-1.81.95-3.16.95-1.21,0-2.16-.32-2.85-.97-.69-.64-1.04-1.48-1.04-2.52v-12.97h-3.73v13.16c0,2.04.66,3.6,1.99,4.68,1.32,1.09,3.21,1.63,5.65,1.63s4.37-.56,5.82-1.67c1.45-1.12,2.18-2.66,2.18-4.63v-13.18h-3.73v12.91Z"/>
        <path class="cls-43" d="M154.63,190.99c-1.8-1.64-4.23-2.45-7.29-2.45-.76,0-2.64.05-5.62.14v19.12h4.67c7.29,0,10.94-3.44,10.94-10.33,0-2.69-.91-4.85-2.7-6.48ZM151.84,202.91c-1.07,1.24-2.55,1.87-4.44,1.87-.69,0-1.35-.03-1.95-.09v-13.04c.74-.06,1.31-.09,1.71-.09,4.2,0,6.29,2.04,6.29,6.12,0,2.25-.54,3.99-1.61,5.23Z"/>
        <path class="cls-29" d="M166.85,188.4l-8.38,19.4h4.16l1.46-3.88h7.2l1.54,3.88h4.12l-8.46-19.4h-1.64ZM165.15,201.32l2.52-7.07,2.53,7.07h-5.05Z"/>
        <path class="cls-24" d="M188.79,200.66c0,1.48-.25,2.59-.76,3.31-.5.73-1.37,1.09-2.59,1.09-1.74,0-2.77-.56-3.08-1.67h-3.34c.1,1.48.7,2.63,1.76,3.46,1.08.83,2.49,1.24,4.23,1.24,2.63,0,4.54-.62,5.73-1.85,1.19-1.23,1.78-3.12,1.78-5.66v-11.92h-3.73v12.02Z"/>
        <rect class="cls-20" x="197.44" y="188.64" width="3.73" height="19.16"/>
        <polygon class="cls-40" points="213.9 188.64 213.9 207.8 227.15 207.8 227.15 204.78 217.63 204.78 217.63 188.64 213.9 188.64"/>
        <path class="cls-15" d="M238.67,188.4l-8.39,19.4h4.15l1.47-3.88h7.19l1.54,3.88h4.13l-8.46-19.4h-1.63ZM236.97,201.32l2.52-7.07,2.53,7.07h-5.05Z"/>
        <path class="cls-26" d="M257.31,188.54c-.76,0-2.64.05-5.62.14v19.12h4.67c7.29,0,10.93-3.44,10.93-10.33,0-2.69-.9-4.85-2.69-6.48-1.8-1.64-4.23-2.45-7.29-2.45ZM261.82,202.91c-1.07,1.24-2.56,1.87-4.45,1.87-.69,0-1.34-.03-1.95-.09v-13.04c.74-.06,1.31-.09,1.71-.09,4.18,0,6.28,2.04,6.28,6.12,0,2.25-.54,3.99-1.6,5.23Z"/>
        <path class="cls-16" d="M103.27,41.18h4.26c2.23,0,4.04-1.67,4.04-3.71v-1.81h-6.16,0c.17-.68.88-1.15,1.82-1.15h3.61v-2.69h1.9v9.36h.25s2.06,0,2.06,0v-9.37h1.45v-2.07h-.25s-.17-.01-.17-.01h-12.98v2.08h5.43v.62h-1.55c-2.18,0-3.97,1.57-3.97,3.49v1.81h6.17,0c-.16.78-.92,1.39-1.92,1.44h-2.45l-1.52-.03h-.27v2.03h.24ZM103.36,39.48c.18,0,1.46.03,1.46.03h2.46c1.26-.08,2.22-.89,2.29-1.93v-.17h-5.97c-.13,0-.22,0-.25,0v-1.48c0-1.75,1.63-3.16,3.64-3.16h1.87v-1.28h-5.17c-.12,0-.22,0-.25,0v-1.41h12.49v1.41h-1.45v9.36h-1.4v-9.36h0s-2.82,0-2.82,0v2.69h-3.27c-1.21,0-2.13.68-2.21,1.63v.18s.08,0,.23,0h5.98v1.47c0,1.87-1.67,3.38-3.71,3.38h-3.93v-1.36Z"/>
        <path class="cls-12" d="M112.4,29.56s.05,0,.08,0c.06,0,.11.01.16.01,1.9,0,3.39-1.51,3.39-3.43v-.32h-.24s-.16,0-.16,0h-1.55v.32c0,.96-.7,1.74-1.57,1.79-.84-.08-1.49-.83-1.49-1.79v-.32h-.25s-1.65,0-1.65,0v.32c0,1.89,1.47,3.42,3.28,3.42ZM110.44,26.15h0c.1,0,.19,0,.25,0,0,1.14.78,2.03,1.81,2.11,1.05-.06,1.9-.98,1.9-2.12h1.06s0,0,0,0c0,1.7-1.31,3.03-2.97,3.08-.03,0-.06,0-.09,0-1.63,0-2.95-1.39-2.96-3.09h1Z"/>
        <path class="cls-44" d="M117.3,41.07h1.47c.77,0,1.4-.7,1.4-1.56v-1.63h-.25s-.16,0-.16,0h-2.71v3.19h.25ZM117.39,38.21h2.21v1.3c0,.68-.48,1.23-1.07,1.23h-1.14v-2.53Z"/>
        <path class="cls-5" d="M85.18,47.87l.21.11.13-.12h0l.21.11,2.81-2.62s.39-.37.39-.37l-.39-.3c-.5-.34-.89-1.01-1.13-1.83h7.44v10.5h-8.63v4.64c0,4.19,2.67,7.76,6.65,8.88.64.21,1.27.21,2.14.21h4.59s.33,0,.33,0v-8.92h5.86v14.5h5.07v-.04h.02v-25.09h6.91v25.08h4.75s.33,0,.33,0v-25.08h17.01c-.04,1.95-.79,3.76-2.09,4.98-.95.91-2.15,1.42-3.4,1.49-.21,0-.41,0-.62,0h-2.71v4.8h10.51c-.09,5.05-4.48,9-10.3,9.23h-4.43v4.58h4.39c.06,0,.12,0,.18,0h.15c7.9,0,14.26-5.15,15.11-12.25,0,0,.27-2.96.35-3.8.31-.09.61-.12.9-.14.92.03,1.71.31,2.12.47,0,0,.14.05.14.05,1.47.62,2.63,1.81,3.19,3.25.26.7.4,1.41.4,2.1s-.14,1.36-.41,1.99c-.52-1.06-1.61-1.69-2.76-1.58-.27,0-.53.01-.8.08-.72.19-1.33.67-1.71,1.31-.38.65-.48,1.41-.28,2.14.26.98,1.04,1.75,2.04,2,.66.19,1.32.26,1.97.23,2.72.03,5.25-1.75,6.03-4.5.16-.56.24-1.14.24-1.71,0-.79-.17-1.57-.46-2.3.63-.02,2.68-.08,2.68-.08l-.21-.45c-2.38-5.2-9.05-6.59-9.12-6.59l.09.02c-1.5-.44-2.9-.58-4.14-.55-1.38,0-2.59.21-3.6.49,1.03-1.4,1.66-3.35,1.68-5.42v-4.15h-38.88s-.33,0-.33,0v4.14s0,5.38,0,6h-5.86v-15.3h-17.47v4.63c0,2.32,1.02,4.26,2.73,5.18ZM83.11,38.72h15.82v15.3h7.51v-6.66s0-2.58,0-3.48h37.56v3.48c-.02,2.17-.72,4.23-1.88,5.52l-1.32,1.46.49-.17,1.36-.49c1.05-.38,2.48-.72,4.17-.72,1.14,0,2.39.14,3.73.54.1.02,5.96,1.32,8.33,5.76-.69.02-2.58.07-2.58.07l.3.67c.31.71.48,1.49.48,2.26,0,.52-.08,1.03-.21,1.53-.68,2.35-2.78,3.91-5.09,4.02-.58.02-1.18-.03-1.77-.2-.78-.2-1.39-.79-1.59-1.54-.15-.56-.07-1.14.22-1.64.28-.5.75-.86,1.31-1.01.23-.06.46-.07.68-.06.91.05,1.72.66,1.97,1.59v-.09s.21,1.51.21,1.51l.27-.41.43-.64s.24-.35.24-.35c.79-1.54.86-3.31.21-5.02-.62-1.61-1.92-2.94-3.56-3.63,0,0-.14-.06-.14-.06-.46-.18-1.35-.51-2.41-.53-.47,0-.97.04-1.48.21l-.32.1-.38,4.25c-.81,6.71-6.81,11.59-14.3,11.66h-3.87v-3.26h3.72s.03,0,.06,0c6.26-.25,10.97-4.56,10.97-10.05v-.49h-10.53v-3.47h2.04c.23,0,.45,0,.68,0,1.4-.08,2.75-.65,3.82-1.67,1.47-1.38,2.32-3.44,2.32-5.63v-.5h-18.68v25.08h-3.42v-25.08h-8.56v25.06c-.54-.02-3.07-.13-3.43-.14v-14.29h-7.51v8.92h0c-.56,0-3.92,0-3.92,0-.81,0-1.39,0-1.94-.19-3.71-1.04-6.18-4.35-6.18-8.24v-3.97h8.62v-11.82h-9.31l.15.62c.24.96.69,1.74,1.24,2.22-.41.38-1.56,1.45-2.12,1.98-.05.05-.11.1-.15.13-1.37-.83-2.2-2.47-2.2-4.46v-3.97Z"/>
        <path class="cls-8" d="M90.3,57.49v.5c0,1.86.94,3.53,2.38,4.27.68.46,1.43.69,2.32.69h.5v-5.45h-5.2ZM94.84,62.27c-.69-.03-1.26-.2-1.83-.58-1.22-.62-1.98-1.99-2.03-3.54h3.86v4.11Z"/>
        <path class="cls-22" d="M163.38,50.89c7.64.79,13.67,3.56,17.93,8.25,4.82,5.3,6.47,11.96,6.99,16.68h-6.09c-.07-8.34-5.09-17.97-14.34-19.53h-.42s-.02,0-.02,0h-4.5v19.54h-73.34l-3.09-.07h-.19s-.91,0-.91,0c-.12.01-5.98.89-8.26,5.66-.53,1.21-.82,2.55-.88,3.98,0,0,0,.44,0,.44,0,1.21.21,2.38.59,3.49-.03,0-.1-.01-.1-.01-1.42-.05-2.6,1.04-2.65,2.42,0,.04,0,.07,0,.11,0,.62.23,1.22.66,1.68.35.38.81.59,1.3.7-1.67.85-1.77,3.49-1.78,3.71-.03.32-.11.67-.26,1.04l-.33.8h0,0s0,.02,0,.02h0s.09.12.09.12l1.14-.52c.52-.26,1.12-.37,1.13-.37.03-.01,2.32-.48,3.14-1.96.44.51,1.07.83,1.77.86.1,0,.19,0,.28-.01.06.01.12.02.17.02,1.07.04,2-.6,2.4-1.56.29.11.6.23.76.29.19,3.11,1.16,8.86,5.51,13.17,2.88,2.85,6.73,4.53,11.43,4.97h.18c.74.07,1.49.1,2.22.09.68,0,1.34-.03,1.99-.09h.81v3.65c-2.84.05-5.38,1.4-6.62,3.45-1.4-2.08-3.83-3.46-6.28-3.46h-.28c-.05,0-.11,0-.16,0h-9.97v5.67c0,9.32,6.55,17,14.6,17.11h.33s0,0,0,0c.04,0,.07,0,.11,0h.33s0-4.96,0-4.96h-.32c-5.35-.11-9.7-5.56-9.7-12.15v-.71h4.69c2.22.06,4.07,2.93,4.33,6.73l.02.31h.44s4.91,0,4.91,0v-.33c.06-3.77,1.9-6.72,4.19-6.72h3.97v.71c0,6.69-3.59,12.02-8.18,12.14l-.32.02v4.96h.33s.07,0,.11,0h0s.33,0,.33,0c7.21-.12,13.07-7.79,13.07-17.11v-5.67h-4.57v-3.64h9.9c0,.73-.11,24.55-.11,24.55h5.35s.1-23.91.11-24.55h22.55v1.82h-5.29c-6.37,0-11.5,6.28-11.5,11.47v4.78h18.96c0,.82,0,4.84-.03,5.06-.26,2.87-3.03,5.1-6.58,5.32l-18.83-.04h-4.74v4.77h.43s23.6,0,23.6,0c6.04,0,10.99-4.41,11.27-10.04,0-.01.01-5.23.01-5.23v-4.79h-18.72c.11-2.91,3.09-6.36,6.57-6.36h10.18v-6.94s0-4.15,0-4.15h-52.45s-.04,0-.06,0c-3.81-.29-6.87-1.54-9.08-3.72-3.06-3.01-3.93-7.22-4.18-9.56,1.66-.17,3.17-.79,4.5-1.86.14-.11,3.51-2.74,3.51-6.51,0-.02-.04-.71-.04-.71-.29-2.46-1.2-4.25-2.72-5.33-1.4-1.01-3.05-1.2-4.18-1.19-1.02-.04-1.74.11-1.76.12-2.13.37-3.94,2.06-4.19,3.93-.17.8.06,1.68.64,2.34.6.68,1.44,1,2.25.96.68.07,1.38-.12,1.93-.58.56-.49.85-1.18.85-1.91,0-.41-.1-.83-.3-1.22,0,0-.09-.18-.17-.35.07,0,.15-.01.21-.01.46.04.87.26,1.25.7,0,0,.34.47.34.47.47.74.63,1.48.63,2.14,0,1.3-.64,2.31-.9,2.56-.97,1.1-1.7,1.53-3.04,1.8-.04.01-.68.16-1.62.17-3.07-.46-5.42-3.18-5.42-6.33,0-3.51,2.82-6.26,6.42-6.26h2.32s23.76,0,27.36,0v3.09h-16.75v4.45c0,7.53,6.26,13.66,13.95,13.66h2.76s0,0,0,0c-.11,1.22-1.33,2.15-3.03,2.21h-.32v4.84h.33s.07-.01.11-.02v.02h.34c4.24-.09,7.83-3.4,7.83-7.22v-7.87h-.44s-4.78,0-4.78,0v3.21h-2.47c-2.47-.03-4.84-1.04-6.53-2.8-1.51-1.57-2.33-3.58-2.33-5.66,0-.07,0-.13.01-.19h11.31v1.92h.44s4.78,0,4.78,0v-9.64h6.22v25.27h5.01v-25.27h29.24v3.52h-18.56v4.83h.44s6.05,0,7.81,0c-.07,6.41-4.08,11.83-8.96,12.25v-5.73h-.45s-4.78,0-4.78,0v10.4h4.21c8.36,0,14.92-7.42,14.99-16.92h5.29v24.24s.02.51.02.51c.21,3.46,1.76,11.63,11.72,12.97,0,0,1.12.12,1.12.12,3.37.72,9.36,2.53,11.23,6.58,0,0,.42.99.6,1.58.19.65.2.91.2.91l.12-1.42h.02l.15-1.35.08-1.05c0-2.52-.89-5.79-5.11-7.09,0,0-.08-.03-.19-.06.06-.04.17-.12.17-.12,2.64-1.82,4-4.61,4.06-8.29-.01-.41-.23-3.9-2.66-6.04-.22-.19-1.03-.84-2.27-1.3v-28.56c.52,0,5.21,0,6.55,0h.36l3.36.18.45.02v-1.01c.01-3.22-.58-14.36-8.21-22.79-5.36-5.91-13.01-9.19-22.74-9.74-.68,0-3.34-.37-4.98-1.16l-1.3-.77c-.68-.49-1.26-1.1-1.72-1.79-.44-.86-.68-1.86-.68-2.85,0-1.43.47-2.73,1.34-3.7.14,1.33,1.16,2.4,2.51,2.55.15.02.29.01.43,0,0,0,0,0,.01,0,.75.08,1.49-.14,2.08-.62.59-.47.96-1.15,1.04-1.91.15-1.44-.81-2.76-2.24-3.07-.84-.24-1.69-.34-2.52-.32-3.49-.11-6.7,1.96-7.63,5.25,0,.02-.08.34-.09.38-.45.03-2.42.15-2.42.15l.07.37c1.13,5.47,6.02,8.57,6.02,8.57,1.74,1.38,3.64,2.03,6.14,2.47,0,0,3.56.48,5.33.6ZM158.16,49.65c-2.39-.42-4.34-1.2-5.84-2.34-.09-.05-4.45-2.89-5.66-7.81.54-.03,2.13-.13,2.13-.13l.09-.46s.09-.39.09-.39c.85-2.98,3.79-4.86,7-4.75.77-.02,1.56.08,2.35.3,1.12.25,1.86,1.27,1.75,2.36-.06.58-.34,1.1-.79,1.47-.45.37-1.02.54-1.6.48,0,0,0,0,0,0-.14.01-.29.01-.43,0-1.12-.12-1.95-1.07-1.95-2.17,0-.07,0-.14,0-.22,0,0,.04-.12.04-.12l.05-.21-.38-.27-.08-.02-.34-.08-.38.28c-1.3,1.15-2,2.79-2,4.63v-.1c0,1.4.1,2.07.73,3.24l.03.09c.52.79,1.18,1.4,1.94,1.96,0,0,1.35.81,1.35.81,1.52.68,2.53,1.1,5.26,1.24,9.55.54,17.05,3.74,22.29,9.53,7.47,8.25,8.05,19.19,8.05,22.34,0,0,0,.15,0,.3v.02c-.5-.02-2.61-.14-3.05-.16-.05,0-.09,0-.09,0-.01,0-7.58-.01-7.58-.01v29.69l.33.12c1.21.42,1.96,1.04,2.17,1.22,2.22,1.95,2.41,5.19,2.43,5.55-.05,3.43-1.31,6.04-3.77,7.74l-1.28.89,1.49.46c3.6,1.11,4.54,3.81,4.64,6.03,0,.15,0,.29,0,.43,0,0,0,.12-.01.18-2.38-3.67-7.92-5.38-11.17-6.07-.03,0-1.16-.13-1.16-.13-9.46-1.28-10.95-9.06-11.14-12.35,0,0-.03-.49-.03-.49v-24.89h0s-7.04,0-7.04,0v.49c0,9.21-6.31,16.43-14.34,16.43h-3.11v-9.08h3.46v5.78h.49c5.56,0,10.25-6.02,10.25-13.13v-.49h0s-6.06,0-7.83,0h-.44v-3.51h18.55v-4.84h0s-31,0-31,0v25.28h-3.25v-25.27h0s-7.99,0-7.99,0v9.64h-3.46v-1.92h0s-13.05,0-13.05,0l-.02.47c-.1,2.4.78,4.71,2.5,6.5,1.83,1.92,4.42,3.01,7.11,3.01h3.46v-3.21h3.46v7.22c0,3.24-2.86,6.04-6.41,6.47-.14.01-.29.04-.44.05v-3.54c1.97-.19,3.39-1.39,3.39-2.98v-.49h-3.02c-.08,0-.15,0-.24,0h-.2c-7.32,0-13.28-5.83-13.28-13v-3.79h16.74v-4.41h0s-28.45,0-28.45,0h-2.32c-3.97,0-7.08,3.04-7.08,6.92,0,3.48,2.6,6.49,6.05,6.99.15,0,.29,0,.43,0,1.03-.01,1.72-.17,1.8-.19,1.45-.29,2.34-.81,3.39-1.99.47-.49,1.97-2.9.3-5.56-.02-.03-.35-.47-.35-.47-.5-.58-1.07-.89-1.68-.95-.13-.01-.24-.02-.38-.01l-1.4.09.63,1.25c.41.81.24,1.77-.4,2.33-.29.25-.65.39-1.01.43-.64.06-1.33-.19-1.8-.73-.44-.5-.62-1.17-.49-1.8.22-1.62,1.79-3.08,3.67-3.4.02,0,.71-.14,1.65-.1.99.04,2.25.27,3.34,1.04,1.36.98,2.18,2.61,2.45,4.86,0,0,.04.68.04.68,0,3.43-3.23,5.95-3.26,5.98-1.28,1.03-2.73,1.61-4.31,1.75l-.5.04.05.5c.23,2.4,1.12,6.9,4.39,10.12,2.34,2.3,5.56,3.62,9.57,3.92h51.81v3.48s0,4.97,0,6.28h-9.52c-3.91,0-7.25,3.95-7.25,7.18v.5h18.74v9.34c-.27,5.26-4.92,9.39-10.61,9.39h-22.94v-3.44h4.08l18.85.03c3.9-.23,6.93-2.72,7.22-5.92.02-.2.02-5.22.02-5.28v-.49h-18.52c-.23,0-.39,0-.44,0v-4.12c0-4.9,4.83-10.81,10.84-10.81h5.94v-3.14h0s-24.31,0-24.31,0c0,0-.1,23.9-.11,24.55h-3.58c0-.64.1-24.31.11-24.54h0s-11.67,0-11.67,0v4.95h4.57v5.01c0,8.61-5.15,15.75-11.63,16.38-.15.02-.3.03-.45.04v-3.67c4.78-.36,8.5-5.86,8.5-12.75v-1.37h0s-5.07,0-5.07,0c-2.63,0-4.65,3.01-4.82,7.04h-3.68c-.36-4.06-2.4-6.99-4.94-7.04-.03,0-.05,0-.07,0h-5.73v1.38c0,6.81,4.47,12.44,10.03,12.76v3.66c-7.53-.31-13.61-7.58-13.61-16.42v-5.01h9.3s.08,0,.13,0h.32c2.45,0,4.9,1.49,6.1,3.7l.23.43.21-.47c.99-2.19,3.61-3.67,6.52-3.67h.49v-4.95h-1.06c-.78.07-1.58.1-2.39.08-.73.01-1.46-.02-2.21-.09h-.17c-4.51-.42-8.23-2.04-11-4.78-4.24-4.2-5.15-9.85-5.33-12.85,0,0-.01-.32-.01-.32l-1.77-.68-.4-.15-.16.5c-.21.77-.85,1.3-1.61,1.38-.09,0-.18.01-.28,0-.73-.02-1.38-.48-1.65-1.15l-.35-.86-.32-.79-.28,1.76c-.26,1.62-2.88,2.15-2.9,2.16,0,0-.08.01-.2.04-.12.03-.29.07-.48.14.05-.19.13-.4.14-.58v-.02c0-.12.06-2.92,1.81-3.3l.33-.07-.14-.57-.03-.28-.35-.05c-.5-.02-.97-.23-1.3-.59-.31-.34-.48-.78-.48-1.24,0-.02,0-.05,0-.08.04-1.03.91-1.83,1.94-1.79,0,0,.08.01.17.03.09-.01.18-.02.27-.02l.57.07h.06s-.23-.69-.23-.69c-.41-1.12-.62-2.3-.62-3.53v-.42c.06-1.35.33-2.61.82-3.73,2.11-4.41,7.64-5.27,7.7-5.27l-.02-.02c.11,0,.26.02.46.02,0,0-.01-.01-.01-.01.08,0,.19.01.32.02h.33c.07,0,.15,0,.24,0l3.06.07h73.77v-19.55h3.8s.01,0,.02,0c8.9,1.52,13.73,10.94,13.73,19.04v.5h7.92l-.06-.55c-.52-4.83-2.2-11.74-7.19-17.24-4.63-5.09-11.25-7.97-19.69-8.57-.88,0-3.96-.48-3.96-.48Z"/>
        <path class="cls-42" d="M166.91,76.54h11.57v-.5c0-5.39-3.52-15.09-10.52-15.91-.29-.04-.58-.09-.87-.1l-.52-.03v16.49h.33v.05ZM167.57,60.76c.13,0,.25.02.39.04,6.28,1.09,9.46,9.93,9.52,15.03h-9.91v-15.07Z"/>
        <path class="cls-6" d="M177.09,116.77c.19-.76.71-1.33,1.35-1.54.09,0,.17-.02.26-.02h0c1.09,0,1.97.94,1.97,2.08,0,.68-.32,1.32-.84,1.71-.55.48-1.28.75-2.06.82-.87.02-1.78-.19-2.56-.66-1-.59-1.68-1.52-1.96-2.67-.09-.38-.14-.78-.14-1.19,0,0,.09-.96.09-.97l.17-.76c.76-2.69,2.79-4.12,4.44-4.57,0,0,.37-.1.37-.1v-29.5h-.33l-10.67-.02h-.33v33c.08,1.32.21,2.51.41,3.55.4,1.48.94,2.69,1.62,3.62.01.02.38.45.38.45,0,0,.22.26.22.26,0,.01.3.32.3.32,1.72,1.78,3.81,2.77,6.19,2.92.13,0,.42,0,.82-.05,1.83-.12,7.45-1,7.58-7.4,0-.13-.18-2.66-1.71-3.99-.78-.68-2.39-1.28-3.86-1.08-.01,0-.04,0-.07.01-.08,0-.18,0-.26.02-.64.05-3.17.84-3.63,3.72,0,.02-.05.54-.05.54,0,.83.28,1.45.84,1.88.99.7,1.48-.39,1.48-.39ZM183.35,116.1c-.13,6.54-6.65,6.74-7.4,6.75-1.34-.09-2.6-.47-3.73-1.14-.14-.1-.28-.21-.43-.32-4.48-3.34-4.03-9.33-4.03-9.33l-.07-31.97s9.18,0,9.48,0v28.34c-1.8.52-3.98,2.09-4.79,5.01,0,.01-.18.81-.18.81,0,.04-.09,1.04-.09,1.04v.02c0,.48.06.92.16,1.36.32,1.33,1.11,2.39,2.27,3.08,1.85,1.1,4.29,1,5.7-.24.67-.5,1.09-1.33,1.09-2.22,0-1.51-1.18-2.74-2.63-2.74-1.19,0-2.23.84-2.54,2.03,0,0-.03.1-.03.14-.04-.03-.12-.08-.12-.08-.38-.29-.57-.73-.57-1.32l.04-.49c.38-2.41,2.53-3.11,3.04-3.15,1.24-.17,2.67.34,3.35.93,1.33,1.15,1.48,3.48,1.48,3.5Z"/>
      </g>
    </g>
  </g>
</svg>