<svg xmlns="http://www.w3.org/2000/svg" width="22" height="22" viewBox="0 0 22 22">
  <g id="Group_214" data-name="Group 214" transform="translate(0 0)">
    <g id="Group_215" data-name="Group 215">
      <g id="Group_212" data-name="Group 212">
        <path id="Path_60" data-name="Path 60" d="M18.333,0H3.667A3.667,3.667,0,0,0,0,3.667V18.333A3.667,3.667,0,0,0,3.667,22H18.333A3.667,3.667,0,0,0,22,18.333V3.667A3.667,3.667,0,0,0,18.333,0Zm1.833,18.333a1.833,1.833,0,0,1-1.833,1.833H3.667a1.833,1.833,0,0,1-1.833-1.833V3.667A1.833,1.833,0,0,1,3.667,1.833H18.333a1.833,1.833,0,0,1,1.833,1.833Z" fill="#fff"/>
        <path id="Path_61" data-name="Path 61" d="M11.241,6a5.241,5.241,0,1,0,5.241,5.241A5.241,5.241,0,0,0,11.241,6Zm0,8.735a3.494,3.494,0,1,1,3.494-3.494A3.494,3.494,0,0,1,11.241,14.735Z" transform="translate(-0.241 -0.241)" fill="#fff"/>
      </g>
      <circle id="Ellipse_5" data-name="Ellipse 5" cx="1.376" cy="1.376" r="1.376" transform="translate(15.649 3.599)" fill="#fff"/>
    </g>
  </g>
</svg>
