<svg xmlns="http://www.w3.org/2000/svg" width="780.449" height="58.631" viewBox="0 0 780.449 58.631"><path d="M-373.457-9.666a10.894,10.894,0,0,1-.688,3.956A8.772,8.772,0,0,1-376.09-2.66,8.654,8.654,0,0,1-379.107-.7,10.524,10.524,0,0,1-383,0h-7.223V-19.346H-383a10.524,10.524,0,0,1,3.895.7,8.607,8.607,0,0,1,3.017,1.971,8.843,8.843,0,0,1,1.944,3.058A10.894,10.894,0,0,1-373.457-9.666Zm-2.686,0a9.709,9.709,0,0,0-.486-3.186,6.714,6.714,0,0,0-1.377-2.376,5.873,5.873,0,0,0-2.16-1.485A7.5,7.5,0,0,0-383-17.226h-4.6V-2.12h4.6a7.5,7.5,0,0,0,2.835-.513,5.911,5.911,0,0,0,2.16-1.478A6.644,6.644,0,0,0-376.63-6.48,9.709,9.709,0,0,0-376.144-9.666Zm15.457,1.593V0h-2.605V-19.346h5.467a11.947,11.947,0,0,1,3.173.371,6.055,6.055,0,0,1,2.207,1.073,4.3,4.3,0,0,1,1.289,1.694,5.662,5.662,0,0,1,.419,2.221,5.567,5.567,0,0,1-.324,1.917,5.063,5.063,0,0,1-.938,1.6,5.723,5.723,0,0,1-1.5,1.215,6.99,6.99,0,0,1-2,.749,3.012,3.012,0,0,1,.864.824L-349,0h-2.322a1.145,1.145,0,0,1-1.053-.553l-5.022-6.912a1.488,1.488,0,0,0-.493-.466,1.8,1.8,0,0,0-.817-.142Zm0-1.9h2.754a6.622,6.622,0,0,0,2-.277,4.107,4.107,0,0,0,1.458-.783,3.248,3.248,0,0,0,.884-1.208,3.945,3.945,0,0,0,.3-1.552,3.091,3.091,0,0,0-1.134-2.605,5.509,5.509,0,0,0-3.4-.878h-2.862Zm19.737,8.492a1.716,1.716,0,0,1,.128-.661,1.7,1.7,0,0,1,.351-.54,1.651,1.651,0,0,1,.533-.364,1.641,1.641,0,0,1,.661-.135,1.641,1.641,0,0,1,.662.135,1.731,1.731,0,0,1,.54.364,1.732,1.732,0,0,1,.365.54,1.641,1.641,0,0,1,.135.661,1.627,1.627,0,0,1-.135.668,1.755,1.755,0,0,1-.365.533,1.64,1.64,0,0,1-.54.358,1.716,1.716,0,0,1-.662.128,1.716,1.716,0,0,1-.661-.128,1.567,1.567,0,0,1-.533-.358,1.717,1.717,0,0,1-.351-.533A1.7,1.7,0,0,1-340.949-1.485ZM-313.9,0V-19.346h6.17a11.8,11.8,0,0,1,3.071.351,5.948,5.948,0,0,1,2.12,1,3.885,3.885,0,0,1,1.222,1.586,5.44,5.44,0,0,1,.392,2.113,4.286,4.286,0,0,1-.223,1.377,4.09,4.09,0,0,1-.668,1.228,4.65,4.65,0,0,1-1.127,1.013,6.317,6.317,0,0,1-1.6.729,5.965,5.965,0,0,1,3.2,1.526,4,4,0,0,1,1.08,2.916,5.434,5.434,0,0,1-.452,2.241,4.8,4.8,0,0,1-1.323,1.742A6.165,6.165,0,0,1-304.175-.4a9.642,9.642,0,0,1-2.889.4Zm2.605-8.816v6.737h4.185a6.43,6.43,0,0,0,1.931-.256,3.582,3.582,0,0,0,1.33-.722,2.8,2.8,0,0,0,.763-1.107,3.951,3.951,0,0,0,.243-1.411,2.9,2.9,0,0,0-1.066-2.369,4.98,4.98,0,0,0-3.2-.871Zm0-1.863h3.456a6.781,6.781,0,0,0,1.924-.243,3.876,3.876,0,0,0,1.35-.675,2.639,2.639,0,0,0,.79-1.046,3.452,3.452,0,0,0,.257-1.343,2.961,2.961,0,0,0-1.026-2.5,5.218,5.218,0,0,0-3.186-.79h-3.564ZM-274.367,0h-2.619V-8.8h-10.435V0h-2.619V-19.346h2.619v8.627h10.435v-8.627h2.619ZM-247.3,0h-2.025a.871.871,0,0,1-.567-.176,1.079,1.079,0,0,1-.324-.446l-1.809-4.671h-8.68l-1.809,4.671a.948.948,0,0,1-.31.432.862.862,0,0,1-.567.189h-2.025l7.736-19.346h2.646Zm-12.676-7.182h7.222l-3.038-7.87q-.148-.351-.29-.81t-.29-.985q-.135.526-.277.992a8.366,8.366,0,0,1-.29.817Zm28.647,5.1a5.4,5.4,0,0,0,2.146-.4,4.5,4.5,0,0,0,1.6-1.134,4.959,4.959,0,0,0,1-1.742,6.883,6.883,0,0,0,.344-2.227V-19.346h2.605V-7.587a8.823,8.823,0,0,1-.533,3.105A7.214,7.214,0,0,1-225.693-2a6.975,6.975,0,0,1-2.423,1.64,8.309,8.309,0,0,1-3.213.594,8.309,8.309,0,0,1-3.213-.594A7.045,7.045,0,0,1-236.972-2,7.162,7.162,0,0,1-238.5-4.482a8.823,8.823,0,0,1-.533-3.105V-19.346h2.606V-7.6a6.883,6.883,0,0,0,.344,2.227,4.96,4.96,0,0,0,1,1.742,4.56,4.56,0,0,0,1.606,1.141A5.373,5.373,0,0,0-231.329-2.079Zm48.87-7.587a10.894,10.894,0,0,1-.689,3.956,8.772,8.772,0,0,1-1.944,3.051A8.654,8.654,0,0,1-188.109-.7,10.524,10.524,0,0,1-192,0h-7.222V-19.346H-192a10.524,10.524,0,0,1,3.895.7,8.607,8.607,0,0,1,3.017,1.971,8.843,8.843,0,0,1,1.944,3.058A10.894,10.894,0,0,1-182.459-9.666Zm-2.687,0a9.71,9.71,0,0,0-.486-3.186,6.715,6.715,0,0,0-1.377-2.376,5.873,5.873,0,0,0-2.16-1.485A7.5,7.5,0,0,0-192-17.226h-4.6V-2.12h4.6a7.5,7.5,0,0,0,2.835-.513,5.911,5.911,0,0,0,2.16-1.478,6.645,6.645,0,0,0,1.377-2.369A9.71,9.71,0,0,0-185.146-9.666ZM-157.093,0h-2.025a.871.871,0,0,1-.567-.176,1.079,1.079,0,0,1-.324-.446l-1.809-4.671H-170.5l-1.809,4.671a.948.948,0,0,1-.311.432.862.862,0,0,1-.567.189h-2.025l7.736-19.346h2.646Zm-12.676-7.182h7.223l-3.038-7.87q-.148-.351-.29-.81t-.29-.985q-.135.526-.277.992a8.362,8.362,0,0,1-.29.817Zm28.3.5a9.777,9.777,0,0,1-.4,2.9,5.876,5.876,0,0,1-1.174,2.167,5.124,5.124,0,0,1-1.91,1.357,6.728,6.728,0,0,1-2.605.473,10.368,10.368,0,0,1-2.727-.378l.135-1.539a.607.607,0,0,1,.169-.371.6.6,0,0,1,.439-.142,2.323,2.323,0,0,1,.641.122,3.8,3.8,0,0,0,1.073.121,4.412,4.412,0,0,0,1.593-.27,2.82,2.82,0,0,0,1.174-.837,3.886,3.886,0,0,0,.722-1.451,7.781,7.781,0,0,0,.25-2.1V-19.346h2.619ZM-127.717,0h-2.619V-19.346h2.619Zm27.257-2.2h8.37V0h-10.976V-19.346h2.606ZM-67.075,0H-69.1a.871.871,0,0,1-.567-.176,1.079,1.079,0,0,1-.324-.446L-71.8-5.292h-8.68L-82.289-.621a.948.948,0,0,1-.311.432A.862.862,0,0,1-83.167,0h-2.025l7.735-19.346h2.646ZM-79.751-7.182h7.223l-3.038-7.87q-.148-.351-.29-.81t-.29-.985q-.135.526-.277.992a8.364,8.364,0,0,1-.29.817Zm38.394-2.484a10.894,10.894,0,0,1-.688,3.956A8.772,8.772,0,0,1-43.99-2.66,8.654,8.654,0,0,1-47.007-.7,10.524,10.524,0,0,1-50.9,0h-7.222V-19.346H-50.9a10.524,10.524,0,0,1,3.895.7,8.607,8.607,0,0,1,3.017,1.971,8.843,8.843,0,0,1,1.944,3.058A10.894,10.894,0,0,1-41.357-9.666Zm-2.687,0a9.71,9.71,0,0,0-.486-3.186,6.715,6.715,0,0,0-1.377-2.376,5.873,5.873,0,0,0-2.16-1.485,7.5,7.5,0,0,0-2.835-.513h-4.6V-2.12h4.6a7.5,7.5,0,0,0,2.835-.513,5.911,5.911,0,0,0,2.16-1.478A6.645,6.645,0,0,0-44.53-6.48,9.71,9.71,0,0,0-44.044-9.666Zm35.68,2.673q.162.324.311.682t.3.709q.135-.365.284-.722a7.332,7.332,0,0,1,.324-.682L-.587-18.9a.717.717,0,0,1,.358-.378,1.744,1.744,0,0,1,.547-.067H2.248V0h-2.3V-14.216q0-.283.014-.608t.04-.661l-6.628,12.1a1,1,0,0,1-.945.608h-.378a1,1,0,0,1-.945-.608l-6.777-12.137q.041.351.061.689t.02.621V0h-2.295V-19.346h1.93a1.679,1.679,0,0,1,.54.067.777.777,0,0,1,.365.378ZM21.053-2.079a5.4,5.4,0,0,0,2.146-.4,4.5,4.5,0,0,0,1.6-1.134,4.96,4.96,0,0,0,1-1.742,6.883,6.883,0,0,0,.344-2.227V-19.346h2.606V-7.587a8.823,8.823,0,0,1-.533,3.105A7.214,7.214,0,0,1,26.689-2a6.975,6.975,0,0,1-2.423,1.64A8.309,8.309,0,0,1,21.053.23,8.309,8.309,0,0,1,17.84-.365,7.045,7.045,0,0,1,15.41-2a7.162,7.162,0,0,1-1.532-2.477,8.823,8.823,0,0,1-.533-3.105V-19.346H15.95V-7.6a6.883,6.883,0,0,0,.344,2.227,4.96,4.96,0,0,0,1,1.742A4.56,4.56,0,0,0,18.9-2.491,5.373,5.373,0,0,0,21.053-2.079Zm28.31-4.914q.162.324.311.682t.3.709q.135-.365.284-.722a7.332,7.332,0,0,1,.324-.682L57.139-18.9a.717.717,0,0,1,.358-.378,1.744,1.744,0,0,1,.547-.067h1.93V0H57.679V-14.216q0-.283.014-.608t.041-.661L51.1-3.389a1,1,0,0,1-.945.608h-.378a1,1,0,0,1-.945-.608L42.059-15.525q.04.351.061.689t.02.621V0H39.845V-19.346h1.931a1.679,1.679,0,0,1,.54.067.777.777,0,0,1,.364.378ZM71.314,0V-19.346h6.17a11.8,11.8,0,0,1,3.071.351,5.948,5.948,0,0,1,2.119,1A3.885,3.885,0,0,1,83.9-16.409a5.44,5.44,0,0,1,.392,2.113,4.286,4.286,0,0,1-.223,1.377,4.09,4.09,0,0,1-.668,1.228,4.651,4.651,0,0,1-1.127,1.013,6.317,6.317,0,0,1-1.6.729,5.965,5.965,0,0,1,3.2,1.526,4,4,0,0,1,1.08,2.916A5.434,5.434,0,0,1,84.5-3.267a4.8,4.8,0,0,1-1.323,1.742A6.165,6.165,0,0,1,81.034-.4a9.642,9.642,0,0,1-2.889.4Zm2.606-8.816v6.737H78.1a6.43,6.43,0,0,0,1.93-.256,3.582,3.582,0,0,0,1.33-.722,2.8,2.8,0,0,0,.763-1.107,3.951,3.951,0,0,0,.243-1.411A2.9,2.9,0,0,0,81.3-7.945a4.98,4.98,0,0,0-3.2-.871Zm0-1.863h3.456a6.781,6.781,0,0,0,1.924-.243,3.875,3.875,0,0,0,1.35-.675,2.639,2.639,0,0,0,.79-1.046,3.452,3.452,0,0,0,.257-1.343,2.961,2.961,0,0,0-1.026-2.5,5.218,5.218,0,0,0-3.186-.79H73.919ZM110.626,0H108.6a.871.871,0,0,1-.567-.176,1.079,1.079,0,0,1-.324-.446L105.9-5.292H97.22L95.411-.621a.948.948,0,0,1-.311.432A.862.862,0,0,1,94.534,0H92.509l7.735-19.346h2.646ZM97.949-7.182h7.223l-3.038-7.87q-.148-.351-.29-.81t-.29-.985q-.135.526-.277.992a8.364,8.364,0,0,1-.29.817ZM122.2,0h-2.619V-19.346H122.2Zm38.232-4a.5.5,0,0,1,.378.175L161.845-2.7a8.276,8.276,0,0,1-2.882,2.147,9.864,9.864,0,0,1-4.1.77,9.578,9.578,0,0,1-3.78-.722,8.314,8.314,0,0,1-2.9-2.025,9.154,9.154,0,0,1-1.863-3.125,11.675,11.675,0,0,1-.661-4.01,11.261,11.261,0,0,1,.688-4.009,9.176,9.176,0,0,1,1.937-3.132,8.663,8.663,0,0,1,2.99-2.032,9.95,9.95,0,0,1,3.848-.722,9.373,9.373,0,0,1,3.645.662,9.176,9.176,0,0,1,2.781,1.8l-.864,1.2a.708.708,0,0,1-.209.223.6.6,0,0,1-.344.088,1.071,1.071,0,0,1-.594-.263,9.027,9.027,0,0,0-.918-.587,7.128,7.128,0,0,0-1.418-.587,7.161,7.161,0,0,0-2.092-.263,7.031,7.031,0,0,0-2.74.52,5.983,5.983,0,0,0-2.14,1.505,6.945,6.945,0,0,0-1.4,2.4,9.588,9.588,0,0,0-.5,3.2,9.333,9.333,0,0,0,.52,3.227,7.124,7.124,0,0,0,1.417,2.4,5.991,5.991,0,0,0,2.12,1.492,6.747,6.747,0,0,0,2.639.513,10.887,10.887,0,0,0,1.559-.1,6.367,6.367,0,0,0,1.283-.317A5.4,5.4,0,0,0,158.963-3a7.79,7.79,0,0,0,1.006-.79A.7.7,0,0,1,160.427-4ZM173.9,0h-2.619V-19.346H173.9Zm24.421-19.346v2.2h-6.264V0h-2.605V-17.145h-6.277v-2.2ZM214.846-7.709V0h-2.619V-7.709l-7.088-11.637h2.3a.838.838,0,0,1,.553.169,1.508,1.508,0,0,1,.351.439l4.428,7.52q.243.472.439.884t.344.817q.148-.4.337-.817t.432-.884l4.415-7.52a1.471,1.471,0,0,1,.337-.418.81.81,0,0,1,.553-.189h2.309Zm37.746.716q.162.324.311.682t.3.709q.135-.365.283-.722a7.331,7.331,0,0,1,.324-.682L260.368-18.9a.717.717,0,0,1,.358-.378,1.744,1.744,0,0,1,.547-.067H263.2V0h-2.3V-14.216q0-.283.014-.608t.04-.661l-6.628,12.1a1,1,0,0,1-.945.608h-.378a1,1,0,0,1-.945-.608l-6.777-12.137q.041.351.061.689t.02.621V0h-2.295V-19.346H245a1.679,1.679,0,0,1,.54.067.777.777,0,0,1,.365.378Zm29.417,4.914a5.4,5.4,0,0,0,2.146-.4,4.5,4.5,0,0,0,1.6-1.134,4.96,4.96,0,0,0,1-1.742,6.883,6.883,0,0,0,.344-2.227V-19.346H289.7V-7.587a8.823,8.823,0,0,1-.533,3.105A7.214,7.214,0,0,1,287.645-2a6.976,6.976,0,0,1-2.423,1.64,8.309,8.309,0,0,1-3.213.594A8.309,8.309,0,0,1,278.8-.365,7.045,7.045,0,0,1,276.365-2a7.162,7.162,0,0,1-1.532-2.477,8.823,8.823,0,0,1-.533-3.105V-19.346h2.605V-7.6a6.884,6.884,0,0,0,.344,2.227,4.96,4.96,0,0,0,1,1.742,4.56,4.56,0,0,0,1.607,1.141A5.373,5.373,0,0,0,282.008-2.079ZM310.7-16.322a.994.994,0,0,1-.263.3.577.577,0,0,1-.344.1.963.963,0,0,1-.54-.23q-.311-.229-.776-.506a6.246,6.246,0,0,0-1.121-.506,4.821,4.821,0,0,0-1.586-.229,4.63,4.63,0,0,0-1.546.236,3.311,3.311,0,0,0-1.121.641,2.632,2.632,0,0,0-.682.952,3.021,3.021,0,0,0-.23,1.181,2.183,2.183,0,0,0,.4,1.343,3.431,3.431,0,0,0,1.053.911,8.066,8.066,0,0,0,1.485.655q.83.277,1.7.574t1.7.668a5.983,5.983,0,0,1,1.485.938,4.277,4.277,0,0,1,1.053,1.39,4.628,4.628,0,0,1,.4,2.025,6.531,6.531,0,0,1-.432,2.383,5.493,5.493,0,0,1-1.262,1.937,5.9,5.9,0,0,1-2.039,1.3,7.5,7.5,0,0,1-2.747.473,8.376,8.376,0,0,1-3.429-.682,8.046,8.046,0,0,1-2.633-1.843l.756-1.242a.994.994,0,0,1,.263-.25.617.617,0,0,1,.344-.1.765.765,0,0,1,.4.142q.223.142.506.358t.648.472a5.355,5.355,0,0,0,.83.472,5.62,5.62,0,0,0,1.06.358,5.772,5.772,0,0,0,1.337.142,4.987,4.987,0,0,0,1.66-.256,3.527,3.527,0,0,0,1.235-.722,3.129,3.129,0,0,0,.776-1.114,3.722,3.722,0,0,0,.27-1.444,2.424,2.424,0,0,0-.4-1.438,3.3,3.3,0,0,0-1.046-.938,7.268,7.268,0,0,0-1.485-.641q-.837-.263-1.7-.54a18.039,18.039,0,0,1-1.7-.641,5.5,5.5,0,0,1-1.485-.945,4.342,4.342,0,0,1-1.046-1.451,5.169,5.169,0,0,1-.4-2.153,5.124,5.124,0,0,1,.4-1.984,5.067,5.067,0,0,1,1.161-1.7,5.672,5.672,0,0,1,1.876-1.188,6.849,6.849,0,0,1,2.558-.446,8.135,8.135,0,0,1,2.95.513,6.967,6.967,0,0,1,2.342,1.485Zm23.072-3.024v2.133h-9.3v6.426H332v2.052h-7.533v6.6h9.315L333.767,0H321.847V-19.346ZM351.3-2.079a5.4,5.4,0,0,0,2.146-.4,4.5,4.5,0,0,0,1.6-1.134,4.96,4.96,0,0,0,1-1.742,6.883,6.883,0,0,0,.344-2.227V-19.346H359V-7.587a8.823,8.823,0,0,1-.533,3.105A7.214,7.214,0,0,1,356.94-2a6.976,6.976,0,0,1-2.423,1.64A8.309,8.309,0,0,1,351.3.23a8.309,8.309,0,0,1-3.213-.594A7.045,7.045,0,0,1,345.661-2a7.162,7.162,0,0,1-1.532-2.477,8.823,8.823,0,0,1-.533-3.105V-19.346H346.2V-7.6a6.884,6.884,0,0,0,.344,2.227,4.96,4.96,0,0,0,1,1.742,4.56,4.56,0,0,0,1.607,1.141A5.373,5.373,0,0,0,351.3-2.079Zm28.31-4.914q.162.324.31.682t.3.709q.135-.365.284-.722a7.331,7.331,0,0,1,.324-.682L387.389-18.9a.717.717,0,0,1,.358-.378,1.744,1.744,0,0,1,.547-.067h1.931V0h-2.3V-14.216q0-.283.014-.608t.04-.661l-6.629,12.1a1,1,0,0,1-.945.608h-.378a1,1,0,0,1-.945-.608L372.31-15.525q.041.351.061.689t.02.621V0h-2.3V-19.346h1.931a1.679,1.679,0,0,1,.54.067.777.777,0,0,1,.365.378ZM-229.761,23.085V24.6h-6.129v4.392h5.229V30.5h-5.229V36h-1.863V23.085Zm7.974,3.636a4.8,4.8,0,0,1,1.818.328,3.792,3.792,0,0,1,1.377.941,4.2,4.2,0,0,1,.873,1.48,5.837,5.837,0,0,1,.306,1.949,5.877,5.877,0,0,1-.306,1.953,4.194,4.194,0,0,1-.873,1.485,3.792,3.792,0,0,1-1.377.941,4.8,4.8,0,0,1-1.818.328,4.834,4.834,0,0,1-1.822-.328A3.826,3.826,0,0,1-225,34.857a4.159,4.159,0,0,1-.878-1.485,5.877,5.877,0,0,1-.306-1.953,5.837,5.837,0,0,1,.306-1.949A4.166,4.166,0,0,1-225,27.99a3.826,3.826,0,0,1,1.386-.941A4.834,4.834,0,0,1-221.787,26.721Zm0,8.073a2.276,2.276,0,0,0,1.962-.882,4.134,4.134,0,0,0,.648-2.484,4.159,4.159,0,0,0-.648-2.484,2.267,2.267,0,0,0-1.962-.891,2.3,2.3,0,0,0-1.984.891,4.137,4.137,0,0,0-.653,2.484,4.112,4.112,0,0,0,.653,2.484A2.308,2.308,0,0,0-221.787,34.794ZM-212.382,36V26.865h.981a.558.558,0,0,1,.382.1.613.613,0,0,1,.139.36l.108,1.332a4.112,4.112,0,0,1,1.062-1.431A2.293,2.293,0,0,1-208.2,26.7a2.43,2.43,0,0,1,.563.063,1.38,1.38,0,0,1,.464.2l-.117,1.278a.273.273,0,0,1-.288.243,1.923,1.923,0,0,1-.374-.054,2.557,2.557,0,0,0-.544-.054,2.088,2.088,0,0,0-.752.126,1.808,1.808,0,0,0-.589.369,2.533,2.533,0,0,0-.464.594,5.547,5.547,0,0,0-.374.8V36Zm9.639,0V26.865h1.026a.421.421,0,0,1,.45.342l.117.891a4.718,4.718,0,0,1,1.125-.99,2.683,2.683,0,0,1,1.449-.387,2.164,2.164,0,0,1,1.485.5,2.814,2.814,0,0,1,.819,1.354,2.849,2.849,0,0,1,.513-.837,2.9,2.9,0,0,1,.7-.576,3.122,3.122,0,0,1,.824-.333,3.678,3.678,0,0,1,.887-.108,2.885,2.885,0,0,1,2.268.9,3.715,3.715,0,0,1,.8,2.56V36h-1.71V30.177a2.35,2.35,0,0,0-.454-1.566,1.64,1.64,0,0,0-1.318-.531,2,2,0,0,0-.734.135,1.746,1.746,0,0,0-.607.4,1.864,1.864,0,0,0-.414.657,2.51,2.51,0,0,0-.153.909V36h-1.71V30.177a2.446,2.446,0,0,0-.428-1.58,1.535,1.535,0,0,0-1.255-.517,2.029,2.029,0,0,0-1.066.3,3.27,3.27,0,0,0-.9.833V36Zm21.681-9.279a4.165,4.165,0,0,1,1.53.274,3.436,3.436,0,0,1,1.215.8,3.641,3.641,0,0,1,.8,1.283,4.9,4.9,0,0,1,.288,1.741,1.107,1.107,0,0,1-.085.531.349.349,0,0,1-.32.135h-6.03a5.038,5.038,0,0,0,.238,1.458,2.967,2.967,0,0,0,.576,1.031,2.278,2.278,0,0,0,.878.612,3.089,3.089,0,0,0,1.143.2,3.413,3.413,0,0,0,1.021-.135,4.6,4.6,0,0,0,.738-.3q.311-.162.527-.3a.743.743,0,0,1,.378-.135.342.342,0,0,1,.315.162l.486.621a3.174,3.174,0,0,1-.729.644,4.563,4.563,0,0,1-.891.441,5.229,5.229,0,0,1-.985.256,6.372,6.372,0,0,1-1,.081,4.705,4.705,0,0,1-1.751-.319,3.848,3.848,0,0,1-1.39-.936,4.3,4.3,0,0,1-.913-1.53,6.194,6.194,0,0,1-.329-2.1,5.2,5.2,0,0,1,.3-1.777,4.228,4.228,0,0,1,.85-1.431,3.961,3.961,0,0,1,1.35-.959A4.408,4.408,0,0,1-181.062,26.721Zm.027,1.251a2.371,2.371,0,0,0-1.768.653,3.1,3.1,0,0,0-.805,1.8h4.851a3.059,3.059,0,0,0-.153-.99,2.192,2.192,0,0,0-.445-.774,2.058,2.058,0,0,0-.715-.508A2.387,2.387,0,0,0-181.035,27.972ZM-172.251,36V26.865h.981a.558.558,0,0,1,.382.1.613.613,0,0,1,.139.36l.108,1.332a4.112,4.112,0,0,1,1.062-1.431,2.293,2.293,0,0,1,1.512-.522,2.43,2.43,0,0,1,.563.063,1.38,1.38,0,0,1,.464.2l-.117,1.278a.273.273,0,0,1-.288.243,1.923,1.923,0,0,1-.374-.054,2.557,2.557,0,0,0-.544-.054,2.088,2.088,0,0,0-.752.126,1.808,1.808,0,0,0-.589.369,2.533,2.533,0,0,0-.464.594,5.547,5.547,0,0,0-.374.8V36Zm15.021-12.915h1.485a.637.637,0,0,1,.4.122.692.692,0,0,1,.229.32l3.546,8.883q.126.315.238.7t.212.8q.09-.414.193-.8a6.343,6.343,0,0,1,.23-.7l3.537-8.883a.646.646,0,0,1,.22-.306.616.616,0,0,1,.4-.135h1.494L-150.3,36h-1.674Zm18.306,3.78V36h-1.71V26.865Zm.333-2.835a1.1,1.1,0,0,1-.094.455,1.2,1.2,0,0,1-.261.373,1.263,1.263,0,0,1-.387.256,1.164,1.164,0,0,1-.464.095,1.08,1.08,0,0,1-.446-.095,1.237,1.237,0,0,1-.373-.256,1.237,1.237,0,0,1-.257-.373,1.1,1.1,0,0,1-.094-.455,1.164,1.164,0,0,1,.094-.464,1.207,1.207,0,0,1,.257-.382,1.237,1.237,0,0,1,.373-.257,1.08,1.08,0,0,1,.446-.094,1.165,1.165,0,0,1,.464.094,1.263,1.263,0,0,1,.387.257,1.171,1.171,0,0,1,.261.382A1.164,1.164,0,0,1-138.591,24.03Zm11.682,4.518a.659.659,0,0,1-.149.153.362.362,0,0,1-.211.054.543.543,0,0,1-.306-.112q-.162-.113-.4-.243a3.326,3.326,0,0,0-.576-.243,2.7,2.7,0,0,0-.837-.113,2.729,2.729,0,0,0-1.161.234,2.224,2.224,0,0,0-.842.675,3.066,3.066,0,0,0-.508,1.062,5.294,5.294,0,0,0-.171,1.4,5.13,5.13,0,0,0,.184,1.44,3.138,3.138,0,0,0,.522,1.062,2.222,2.222,0,0,0,.819.657,2.51,2.51,0,0,0,1.076.225,2.708,2.708,0,0,0,.945-.139,3.06,3.06,0,0,0,.612-.3,4.725,4.725,0,0,0,.41-.3.525.525,0,0,1,.337-.139.363.363,0,0,1,.324.162l.486.621a3.575,3.575,0,0,1-.7.648,3.916,3.916,0,0,1-.828.441,4.716,4.716,0,0,1-.918.252,5.8,5.8,0,0,1-.972.081,4.015,4.015,0,0,1-1.593-.315,3.63,3.63,0,0,1-1.283-.918,4.337,4.337,0,0,1-.855-1.481,5.955,5.955,0,0,1-.311-1.993,5.96,5.96,0,0,1,.283-1.877,4.277,4.277,0,0,1,.833-1.49,3.762,3.762,0,0,1,1.354-.981,4.591,4.591,0,0,1,1.85-.351,4.384,4.384,0,0,1,1.724.315,4.1,4.1,0,0,1,1.31.882Zm8.118,7.6a2.25,2.25,0,0,1-1.692-.612,2.432,2.432,0,0,1-.594-1.764V28.26h-1.071a.35.35,0,0,1-.252-.094.362.362,0,0,1-.1-.275v-.684l1.485-.2.387-2.763a.432.432,0,0,1,.135-.229.385.385,0,0,1,.261-.085h.864v3.087h2.6V28.26h-2.6v5.391a1.142,1.142,0,0,0,.265.823.926.926,0,0,0,.7.275,1.281,1.281,0,0,0,.423-.063,1.455,1.455,0,0,0,.306-.144l.22-.144a.313.313,0,0,1,.167-.063.217.217,0,0,1,.13.036.428.428,0,0,1,.1.126l.5.819a3.041,3.041,0,0,1-1.022.612A3.517,3.517,0,0,1-118.791,36.144Zm10.584-9.423a4.8,4.8,0,0,1,1.818.328,3.792,3.792,0,0,1,1.377.941,4.2,4.2,0,0,1,.873,1.48,5.837,5.837,0,0,1,.306,1.949,5.877,5.877,0,0,1-.306,1.953,4.2,4.2,0,0,1-.873,1.485,3.792,3.792,0,0,1-1.377.941,4.8,4.8,0,0,1-1.818.328,4.834,4.834,0,0,1-1.823-.328,3.827,3.827,0,0,1-1.386-.941,4.159,4.159,0,0,1-.877-1.485,5.877,5.877,0,0,1-.306-1.953,5.837,5.837,0,0,1,.306-1.949,4.166,4.166,0,0,1,.877-1.48,3.827,3.827,0,0,1,1.386-.941A4.834,4.834,0,0,1-108.207,26.721Zm0,8.073a2.276,2.276,0,0,0,1.962-.882,4.134,4.134,0,0,0,.648-2.484,4.158,4.158,0,0,0-.648-2.484,2.267,2.267,0,0,0-1.962-.891,2.3,2.3,0,0,0-1.985.891,4.137,4.137,0,0,0-.652,2.484,4.112,4.112,0,0,0,.652,2.484A2.308,2.308,0,0,0-108.207,34.794ZM-98.8,36V26.865h.981a.558.558,0,0,1,.382.1.613.613,0,0,1,.14.36l.108,1.332a4.112,4.112,0,0,1,1.062-1.431,2.293,2.293,0,0,1,1.512-.522,2.43,2.43,0,0,1,.563.063,1.38,1.38,0,0,1,.464.2l-.117,1.278a.273.273,0,0,1-.288.243,1.923,1.923,0,0,1-.374-.054,2.557,2.557,0,0,0-.545-.054,2.088,2.088,0,0,0-.751.126,1.808,1.808,0,0,0-.59.369,2.533,2.533,0,0,0-.464.594,5.547,5.547,0,0,0-.373.8V36Zm11.43-9.135V36h-1.71V26.865Zm.333-2.835a1.1,1.1,0,0,1-.094.455,1.2,1.2,0,0,1-.261.373,1.262,1.262,0,0,1-.387.256,1.164,1.164,0,0,1-.463.095,1.08,1.08,0,0,1-.446-.095,1.237,1.237,0,0,1-.373-.256,1.237,1.237,0,0,1-.257-.373,1.1,1.1,0,0,1-.095-.455,1.164,1.164,0,0,1,.095-.464,1.207,1.207,0,0,1,.257-.382,1.237,1.237,0,0,1,.373-.257,1.08,1.08,0,0,1,.446-.094,1.164,1.164,0,0,1,.463.094,1.263,1.263,0,0,1,.387.257,1.171,1.171,0,0,1,.261.382A1.165,1.165,0,0,1-87.039,24.03ZM-75.906,36a.759.759,0,0,1-.387-.081.565.565,0,0,1-.216-.315l-.189-.819a8.888,8.888,0,0,1-.693.581,3.889,3.889,0,0,1-.715.427,3.813,3.813,0,0,1-.8.261,4.554,4.554,0,0,1-.945.09A3.315,3.315,0,0,1-80.856,36a2.235,2.235,0,0,1-.815-.454,2.184,2.184,0,0,1-.549-.761,2.626,2.626,0,0,1-.2-1.076,2.005,2.005,0,0,1,.292-1.035,2.619,2.619,0,0,1,.954-.886,6.233,6.233,0,0,1,1.728-.644,12.918,12.918,0,0,1,2.623-.288v-.684a2.365,2.365,0,0,0-.446-1.562,1.619,1.619,0,0,0-1.309-.526,2.775,2.775,0,0,0-.977.149,3.94,3.94,0,0,0-.675.324q-.284.176-.5.319a.774.774,0,0,1-.432.144.476.476,0,0,1-.3-.094,1.053,1.053,0,0,1-.211-.22l-.306-.558a5.337,5.337,0,0,1,1.651-1.08,5.156,5.156,0,0,1,1.957-.36A3.544,3.544,0,0,1-77,26.955a2.787,2.787,0,0,1,1.012.706,3.034,3.034,0,0,1,.621,1.094,4.477,4.477,0,0,1,.212,1.413V36Zm-3.429-1.053a3.3,3.3,0,0,0,.752-.081,2.869,2.869,0,0,0,.648-.234,3.17,3.17,0,0,0,.572-.374,6.3,6.3,0,0,0,.54-.5V31.923a13.139,13.139,0,0,0-1.836.171,5.209,5.209,0,0,0-1.229.351,1.682,1.682,0,0,0-.688.518,1.111,1.111,0,0,0-.216.661,1.472,1.472,0,0,0,.113.6,1.07,1.07,0,0,0,.311.41,1.324,1.324,0,0,0,.463.234A2.056,2.056,0,0,0-79.335,34.947ZM-56.241,36a.759.759,0,0,1-.387-.081.565.565,0,0,1-.216-.315l-.189-.819a8.889,8.889,0,0,1-.693.581,3.889,3.889,0,0,1-.715.427,3.813,3.813,0,0,1-.8.261,4.554,4.554,0,0,1-.945.09A3.315,3.315,0,0,1-61.191,36a2.235,2.235,0,0,1-.814-.454,2.184,2.184,0,0,1-.549-.761,2.626,2.626,0,0,1-.2-1.076,2.005,2.005,0,0,1,.292-1.035,2.619,2.619,0,0,1,.954-.886,6.233,6.233,0,0,1,1.728-.644,12.918,12.918,0,0,1,2.624-.288v-.684a2.365,2.365,0,0,0-.445-1.562,1.619,1.619,0,0,0-1.31-.526,2.775,2.775,0,0,0-.977.149,3.94,3.94,0,0,0-.675.324q-.283.176-.5.319a.774.774,0,0,1-.432.144.476.476,0,0,1-.3-.094,1.054,1.054,0,0,1-.212-.22l-.306-.558a5.336,5.336,0,0,1,1.652-1.08,5.157,5.157,0,0,1,1.958-.36,3.544,3.544,0,0,1,1.377.252,2.787,2.787,0,0,1,1.013.706,3.034,3.034,0,0,1,.621,1.094,4.477,4.477,0,0,1,.212,1.413V36Zm-3.429-1.053a3.3,3.3,0,0,0,.751-.081,2.869,2.869,0,0,0,.648-.234,3.17,3.17,0,0,0,.571-.374,6.3,6.3,0,0,0,.54-.5V31.923A13.139,13.139,0,0,0-59,32.094a5.209,5.209,0,0,0-1.229.351,1.682,1.682,0,0,0-.689.518,1.111,1.111,0,0,0-.216.661,1.472,1.472,0,0,0,.112.6,1.07,1.07,0,0,0,.311.41,1.324,1.324,0,0,0,.464.234A2.056,2.056,0,0,0-59.67,34.947ZM-50.04,36V26.865h1.026a.421.421,0,0,1,.45.342l.126.945a5.172,5.172,0,0,1,1.323-1.035,3.47,3.47,0,0,1,1.683-.4,3.241,3.241,0,0,1,1.319.252,2.636,2.636,0,0,1,.958.707,3.065,3.065,0,0,1,.585,1.089,4.714,4.714,0,0,1,.2,1.409V36h-1.71V30.177a2.351,2.351,0,0,0-.459-1.544,1.708,1.708,0,0,0-1.4-.553,2.645,2.645,0,0,0-1.287.324,4.231,4.231,0,0,0-1.107.891V36Zm19.719,0a.421.421,0,0,1-.45-.342l-.153-1.071a4.975,4.975,0,0,1-.621.635,4.031,4.031,0,0,1-.711.486,3.548,3.548,0,0,1-.8.311,3.665,3.665,0,0,1-.909.108,3.261,3.261,0,0,1-1.417-.3,2.963,2.963,0,0,1-1.089-.9,4.276,4.276,0,0,1-.7-1.463,7.456,7.456,0,0,1-.243-2,6.323,6.323,0,0,1,.27-1.886,4.526,4.526,0,0,1,.783-1.507,3.694,3.694,0,0,1,1.242-1,3.632,3.632,0,0,1,1.647-.365,3.337,3.337,0,0,1,1.417.274,3.349,3.349,0,0,1,1.049.77V22.725h1.71V36Zm-3.087-1.251a2.551,2.551,0,0,0,1.341-.347,3.834,3.834,0,0,0,1.062-.986V29.061a2.467,2.467,0,0,0-.945-.806,2.746,2.746,0,0,0-1.134-.23,2.238,2.238,0,0,0-1.9.882,4.187,4.187,0,0,0-.666,2.556,6.323,6.323,0,0,0,.153,1.494,2.942,2.942,0,0,0,.441,1.021,1.723,1.723,0,0,0,.7.585A2.3,2.3,0,0,0-33.408,34.749ZM-5.76,36H-7.2a.618.618,0,0,1-.4-.121.772.772,0,0,1-.234-.32l-1.161-3.033h-5.733l-1.161,3.033a.646.646,0,0,1-.22.306.616.616,0,0,1-.4.135h-1.44L-12.8,23.085h1.881Zm-8.451-4.806H-9.5l-1.953-5.085q-.1-.243-.2-.562t-.2-.7q-.1.378-.2.7t-.2.567ZM.324,22.725V36h-1.71V22.725ZM5.913,36V22.725h1.71v5.427a4.5,4.5,0,0,1,1.291-1.044,3.451,3.451,0,0,1,1.652-.387,3.281,3.281,0,0,1,1.444.31,3.061,3.061,0,0,1,1.094.887,4.091,4.091,0,0,1,.689,1.409,6.777,6.777,0,0,1,.238,1.868,6.956,6.956,0,0,1-.274,2.016,4.689,4.689,0,0,1-.783,1.557,3.524,3.524,0,0,1-1.233,1,3.659,3.659,0,0,1-1.633.355A3.07,3.07,0,0,1,8.6,35.789a3.482,3.482,0,0,1-1.066-.932l-.081.783A.408.408,0,0,1,7.02,36ZM10,28.08a2.48,2.48,0,0,0-1.328.346,3.923,3.923,0,0,0-1.048.986v4.365a2.491,2.491,0,0,0,.945.8,2.7,2.7,0,0,0,1.116.229,2.257,2.257,0,0,0,1.917-.882,4.4,4.4,0,0,0,.666-2.664,3.964,3.964,0,0,0-.59-2.408A1.989,1.989,0,0,0,10,28.08Zm12.852-1.359a4.165,4.165,0,0,1,1.53.274,3.436,3.436,0,0,1,1.215.8,3.641,3.641,0,0,1,.8,1.283,4.9,4.9,0,0,1,.288,1.741,1.107,1.107,0,0,1-.085.531.349.349,0,0,1-.319.135H20.25a5.038,5.038,0,0,0,.239,1.458,2.967,2.967,0,0,0,.576,1.031,2.278,2.278,0,0,0,.878.612,3.089,3.089,0,0,0,1.143.2,3.413,3.413,0,0,0,1.021-.135,4.6,4.6,0,0,0,.738-.3q.311-.162.527-.3a.743.743,0,0,1,.378-.135.342.342,0,0,1,.315.162l.486.621a3.173,3.173,0,0,1-.729.644,4.564,4.564,0,0,1-.891.441,5.229,5.229,0,0,1-.986.256,6.372,6.372,0,0,1-1,.081,4.705,4.705,0,0,1-1.75-.319A3.848,3.848,0,0,1,19.8,34.87a4.3,4.3,0,0,1-.913-1.53,6.194,6.194,0,0,1-.329-2.1,5.2,5.2,0,0,1,.3-1.777,4.228,4.228,0,0,1,.851-1.431,3.961,3.961,0,0,1,1.35-.959A4.408,4.408,0,0,1,22.851,26.721Zm.027,1.251a2.371,2.371,0,0,0-1.769.653,3.1,3.1,0,0,0-.806,1.8h4.851a3.059,3.059,0,0,0-.153-.99,2.192,2.192,0,0,0-.446-.774,2.058,2.058,0,0,0-.715-.508A2.387,2.387,0,0,0,22.878,27.972ZM31.662,36V26.865h.981a.558.558,0,0,1,.382.1.613.613,0,0,1,.139.36l.108,1.332a4.112,4.112,0,0,1,1.062-1.431,2.293,2.293,0,0,1,1.512-.522,2.43,2.43,0,0,1,.563.063,1.38,1.38,0,0,1,.463.2l-.117,1.278a.273.273,0,0,1-.288.243,1.923,1.923,0,0,1-.374-.054,2.557,2.557,0,0,0-.544-.054,2.088,2.088,0,0,0-.751.126,1.808,1.808,0,0,0-.59.369,2.533,2.533,0,0,0-.464.594,5.547,5.547,0,0,0-.374.8V36Zm12.483.144a2.25,2.25,0,0,1-1.692-.612,2.432,2.432,0,0,1-.594-1.764V28.26H40.788a.35.35,0,0,1-.252-.094.362.362,0,0,1-.1-.275v-.684l1.485-.2.387-2.763a.432.432,0,0,1,.135-.229.385.385,0,0,1,.261-.085h.864v3.087h2.6V28.26h-2.6v5.391a1.142,1.142,0,0,0,.265.823.926.926,0,0,0,.7.275,1.281,1.281,0,0,0,.423-.063,1.455,1.455,0,0,0,.306-.144l.221-.144a.313.313,0,0,1,.167-.063.217.217,0,0,1,.131.036.428.428,0,0,1,.1.126l.5.819a3.041,3.041,0,0,1-1.021.612A3.517,3.517,0,0,1,44.145,36.144Zm21.078-4.932a10.5,10.5,0,0,1,.423.972q.1-.261.2-.508t.229-.481L70.362,23.4a.5.5,0,0,1,.257-.27A1.292,1.292,0,0,1,71,23.085h1.377V36H70.749V26.712q0-.2.009-.423t.027-.459l-4.338,7.938a.715.715,0,0,1-.666.423H65.52a.712.712,0,0,1-.675-.423l-4.428-7.974q.018.243.036.477t.018.441V36H58.842V23.085h1.377a1.293,1.293,0,0,1,.382.045.5.5,0,0,1,.257.27Zm14.526-4.347v5.823a2.351,2.351,0,0,0,.459,1.543,1.708,1.708,0,0,0,1.4.554,2.683,2.683,0,0,0,1.282-.319A4.122,4.122,0,0,0,84,33.579V26.865h1.71V36H84.681a.421.421,0,0,1-.45-.342l-.135-.945a5.2,5.2,0,0,1-1.318,1.035,3.444,3.444,0,0,1-1.679.4,3.265,3.265,0,0,1-1.327-.252,2.594,2.594,0,0,1-.954-.706,3.105,3.105,0,0,1-.58-1.089,4.714,4.714,0,0,1-.2-1.409V26.865Zm16.857,1.548a.389.389,0,0,1-.351.216.662.662,0,0,1-.319-.1q-.175-.1-.419-.22a3.524,3.524,0,0,0-.58-.221,2.846,2.846,0,0,0-.8-.1,2.335,2.335,0,0,0-.7.1,1.694,1.694,0,0,0-.536.27,1.238,1.238,0,0,0-.342.4,1.051,1.051,0,0,0-.121.5.832.832,0,0,0,.2.572,1.755,1.755,0,0,0,.531.4,4.784,4.784,0,0,0,.752.3q.423.13.864.274t.864.328a3.174,3.174,0,0,1,.752.455,2.086,2.086,0,0,1,.531.662,2.025,2.025,0,0,1,.2.94,2.983,2.983,0,0,1-.229,1.179,2.6,2.6,0,0,1-.675.936,3.206,3.206,0,0,1-1.093.621,4.548,4.548,0,0,1-1.494.225,4.649,4.649,0,0,1-1.741-.315,4.41,4.41,0,0,1-1.328-.8l.4-.648a.535.535,0,0,1,.18-.194.5.5,0,0,1,.27-.068.614.614,0,0,1,.351.126q.18.126.437.275a3.58,3.58,0,0,0,.621.274,2.8,2.8,0,0,0,.9.126,2.436,2.436,0,0,0,.8-.117,1.712,1.712,0,0,0,.563-.311,1.2,1.2,0,0,0,.333-.455,1.422,1.422,0,0,0,.108-.549.924.924,0,0,0-.2-.612,1.7,1.7,0,0,0-.531-.414,4.264,4.264,0,0,0-.751-.3q-.423-.126-.868-.27t-.868-.329a2.873,2.873,0,0,1-.752-.472,2.122,2.122,0,0,1-.733-1.7,2.471,2.471,0,0,1,.85-1.872,3.1,3.1,0,0,1,1.031-.585,4.178,4.178,0,0,1,1.4-.216A4.5,4.5,0,0,1,95.738,27a3.61,3.61,0,0,1,1.246.788Zm9.279-1.692a4.165,4.165,0,0,1,1.53.274,3.436,3.436,0,0,1,1.215.8,3.641,3.641,0,0,1,.8,1.283,4.9,4.9,0,0,1,.288,1.741,1.107,1.107,0,0,1-.086.531.349.349,0,0,1-.319.135h-6.03a5.038,5.038,0,0,0,.238,1.458,2.967,2.967,0,0,0,.576,1.031,2.278,2.278,0,0,0,.878.612,3.089,3.089,0,0,0,1.143.2,3.413,3.413,0,0,0,1.021-.135,4.6,4.6,0,0,0,.738-.3q.311-.162.526-.3a.743.743,0,0,1,.378-.135.342.342,0,0,1,.315.162l.486.621a3.173,3.173,0,0,1-.729.644,4.564,4.564,0,0,1-.891.441,5.229,5.229,0,0,1-.986.256,6.372,6.372,0,0,1-1,.081,4.705,4.705,0,0,1-1.75-.319,3.848,3.848,0,0,1-1.391-.936,4.3,4.3,0,0,1-.913-1.53,6.194,6.194,0,0,1-.328-2.1,5.2,5.2,0,0,1,.3-1.777,4.228,4.228,0,0,1,.851-1.431,3.961,3.961,0,0,1,1.35-.959A4.408,4.408,0,0,1,105.885,26.721Zm.027,1.251a2.371,2.371,0,0,0-1.769.653,3.1,3.1,0,0,0-.805,1.8h4.851a3.059,3.059,0,0,0-.153-.99,2.192,2.192,0,0,0-.446-.774,2.058,2.058,0,0,0-.715-.508A2.387,2.387,0,0,0,105.912,27.972Zm10.4-1.107v5.823a2.351,2.351,0,0,0,.459,1.543,1.708,1.708,0,0,0,1.4.554,2.683,2.683,0,0,0,1.282-.319,4.122,4.122,0,0,0,1.112-.887V26.865h1.71V36h-1.026a.421.421,0,0,1-.45-.342l-.135-.945a5.2,5.2,0,0,1-1.318,1.035,3.444,3.444,0,0,1-1.679.4,3.265,3.265,0,0,1-1.327-.252,2.594,2.594,0,0,1-.954-.706,3.105,3.105,0,0,1-.58-1.089,4.714,4.714,0,0,1-.2-1.409V26.865ZM127.809,36V26.865h1.026a.421.421,0,0,1,.45.342l.117.891a4.718,4.718,0,0,1,1.125-.99,2.683,2.683,0,0,1,1.449-.387,2.164,2.164,0,0,1,1.485.5,2.814,2.814,0,0,1,.819,1.354,2.849,2.849,0,0,1,.513-.837,2.9,2.9,0,0,1,.7-.576,3.122,3.122,0,0,1,.824-.333,3.678,3.678,0,0,1,.887-.108,2.885,2.885,0,0,1,2.268.9,3.715,3.715,0,0,1,.8,2.56V36h-1.71V30.177a2.35,2.35,0,0,0-.454-1.566,1.64,1.64,0,0,0-1.318-.531,2,2,0,0,0-.734.135,1.746,1.746,0,0,0-.607.4,1.864,1.864,0,0,0-.414.657,2.51,2.51,0,0,0-.153.909V36h-1.71V30.177a2.446,2.446,0,0,0-.428-1.58,1.535,1.535,0,0,0-1.255-.517,2.029,2.029,0,0,0-1.066.3,3.27,3.27,0,0,0-.9.833V36Zm17.6-1.152a1.024,1.024,0,0,1,.3-.747,1.08,1.08,0,0,1,.805-.306,1.132,1.132,0,0,1,.495.1,1.06,1.06,0,0,1,.365.284,1.185,1.185,0,0,1,.221.423,1.8,1.8,0,0,1,.072.513,3.349,3.349,0,0,1-.117.85,4.317,4.317,0,0,1-.342.882,5.21,5.21,0,0,1-.554.851,5.051,5.051,0,0,1-.742.756l-.288-.27a.482.482,0,0,1-.1-.131.331.331,0,0,1-.027-.139.382.382,0,0,1,.135-.261q.09-.1.23-.261a3.869,3.869,0,0,0,.283-.378,3.376,3.376,0,0,0,.261-.472,2.35,2.35,0,0,0,.171-.544H146.5a1.134,1.134,0,0,1-.445-.085.936.936,0,0,1-.342-.243,1.2,1.2,0,0,1-.221-.369A1.26,1.26,0,0,1,145.413,34.848ZM160.875,36V23.085h4.176a8,8,0,0,1,2.07.234,3.965,3.965,0,0,1,1.422.67,2.639,2.639,0,0,1,.823,1.067,3.606,3.606,0,0,1,.266,1.413,2.789,2.789,0,0,1-.148.9,2.682,2.682,0,0,1-.445.81,3.265,3.265,0,0,1-.747.675,4.065,4.065,0,0,1-1.053.49,3.915,3.915,0,0,1,2.111,1.021,2.666,2.666,0,0,1,.715,1.931,3.63,3.63,0,0,1-.306,1.507,3.215,3.215,0,0,1-.891,1.166,4.213,4.213,0,0,1-1.436.756,6.406,6.406,0,0,1-1.939.27Zm1.854-5.85v4.374h2.736a4.075,4.075,0,0,0,1.26-.171,2.34,2.34,0,0,0,.855-.472,1.832,1.832,0,0,0,.491-.715,2.537,2.537,0,0,0,.158-.909,1.894,1.894,0,0,0-.684-1.539,3.208,3.208,0,0,0-2.079-.567Zm0-1.314h2.241a4.545,4.545,0,0,0,1.251-.153,2.475,2.475,0,0,0,.878-.432,1.745,1.745,0,0,0,.518-.675,2.2,2.2,0,0,0,.171-.882,1.934,1.934,0,0,0-.671-1.634,3.37,3.37,0,0,0-2.065-.517h-2.322Zm16.254-2.115a4.8,4.8,0,0,1,1.818.328,3.792,3.792,0,0,1,1.377.941,4.2,4.2,0,0,1,.873,1.48,6.371,6.371,0,0,1,0,3.9,4.194,4.194,0,0,1-.873,1.485,3.792,3.792,0,0,1-1.377.941,5.207,5.207,0,0,1-3.64,0,3.826,3.826,0,0,1-1.386-.941,4.159,4.159,0,0,1-.878-1.485,6.371,6.371,0,0,1,0-3.9,4.166,4.166,0,0,1,.878-1.48,3.826,3.826,0,0,1,1.386-.941A4.834,4.834,0,0,1,178.983,26.721Zm0,8.073a2.276,2.276,0,0,0,1.962-.882,4.134,4.134,0,0,0,.648-2.484,4.159,4.159,0,0,0-.648-2.484,2.267,2.267,0,0,0-1.962-.891,2.3,2.3,0,0,0-1.984.891,4.137,4.137,0,0,0-.653,2.484A4.112,4.112,0,0,0,177,33.912,2.308,2.308,0,0,0,178.983,34.794Zm9.4,1.206V26.865h1.026a.421.421,0,0,1,.45.342l.117.891a4.718,4.718,0,0,1,1.125-.99,2.683,2.683,0,0,1,1.449-.387,2.164,2.164,0,0,1,1.485.5,2.814,2.814,0,0,1,.819,1.354,2.849,2.849,0,0,1,.513-.837,2.9,2.9,0,0,1,.7-.576,3.122,3.122,0,0,1,.824-.333,3.678,3.678,0,0,1,.887-.108,2.885,2.885,0,0,1,2.268.9,3.715,3.715,0,0,1,.8,2.56V36h-1.71V30.177a2.35,2.35,0,0,0-.454-1.566,1.64,1.64,0,0,0-1.318-.531,2,2,0,0,0-.734.135,1.746,1.746,0,0,0-.607.4,1.864,1.864,0,0,0-.414.657,2.51,2.51,0,0,0-.153.909V36h-1.71V30.177a2.446,2.446,0,0,0-.428-1.58,1.535,1.535,0,0,0-1.255-.517,2.029,2.029,0,0,0-1.066.3,3.27,3.27,0,0,0-.9.833V36Zm17.91,0V22.725h1.71v5.427a4.5,4.5,0,0,1,1.292-1.044,3.451,3.451,0,0,1,1.652-.387,3.281,3.281,0,0,1,1.444.31,3.061,3.061,0,0,1,1.094.887,4.091,4.091,0,0,1,.689,1.409,6.777,6.777,0,0,1,.238,1.868,6.956,6.956,0,0,1-.275,2.016,4.688,4.688,0,0,1-.783,1.557,3.524,3.524,0,0,1-1.233,1,3.659,3.659,0,0,1-1.633.355,3.07,3.07,0,0,1-1.508-.337,3.482,3.482,0,0,1-1.066-.932l-.081.783a.408.408,0,0,1-.432.36Zm4.086-7.92a2.48,2.48,0,0,0-1.327.346,3.923,3.923,0,0,0-1.049.986v4.365a2.491,2.491,0,0,0,.945.8,2.7,2.7,0,0,0,1.116.229,2.257,2.257,0,0,0,1.917-.882,4.4,4.4,0,0,0,.666-2.664,3.965,3.965,0,0,0-.589-2.408A1.989,1.989,0,0,0,210.384,28.08ZM225.306,36a.759.759,0,0,1-.387-.081.565.565,0,0,1-.216-.315l-.189-.819a8.888,8.888,0,0,1-.693.581,3.89,3.89,0,0,1-.715.427,3.813,3.813,0,0,1-.8.261,4.554,4.554,0,0,1-.945.09A3.315,3.315,0,0,1,220.356,36a2.235,2.235,0,0,1-.814-.454,2.184,2.184,0,0,1-.549-.761,2.626,2.626,0,0,1-.2-1.076,2.005,2.005,0,0,1,.292-1.035,2.619,2.619,0,0,1,.954-.886,6.233,6.233,0,0,1,1.728-.644,12.918,12.918,0,0,1,2.623-.288v-.684a2.365,2.365,0,0,0-.445-1.562,1.619,1.619,0,0,0-1.309-.526,2.775,2.775,0,0,0-.977.149,3.94,3.94,0,0,0-.675.324q-.283.176-.5.319a.774.774,0,0,1-.432.144.476.476,0,0,1-.3-.094,1.054,1.054,0,0,1-.212-.22l-.306-.558a5.336,5.336,0,0,1,1.652-1.08,5.157,5.157,0,0,1,1.958-.36,3.544,3.544,0,0,1,1.377.252,2.787,2.787,0,0,1,1.012.706,3.034,3.034,0,0,1,.621,1.094,4.477,4.477,0,0,1,.212,1.413V36Zm-3.429-1.053a3.3,3.3,0,0,0,.751-.081,2.869,2.869,0,0,0,.648-.234,3.17,3.17,0,0,0,.572-.374,6.3,6.3,0,0,0,.54-.5V31.923a13.139,13.139,0,0,0-1.836.171,5.21,5.21,0,0,0-1.229.351,1.682,1.682,0,0,0-.688.518,1.111,1.111,0,0,0-.216.661,1.472,1.472,0,0,0,.113.6,1.07,1.07,0,0,0,.311.41,1.324,1.324,0,0,0,.464.234A2.056,2.056,0,0,0,221.877,34.947Zm12.285,3.717a.746.746,0,0,1-.207.3.6.6,0,0,1-.387.1H232.3l1.674-3.627-3.762-8.577H231.7a.506.506,0,0,1,.513.342l2.367,5.58a6.314,6.314,0,0,1,.243.819q.063-.207.135-.418t.153-.418l2.286-5.562a.5.5,0,0,1,.189-.248.521.521,0,0,1,.306-.095h1.359Z" transform="translate(390.224 19.562)"/></svg>